<mxfile host="app.diagrams.net" agent="Mozilla/5.0 (Windows NT 10.0; Win64; x64) AppleWebKit/537.36 (KHTML, like Gecko) Chrome/122.0.6261.95 Safari/537.36" version="27.0.2">
  <diagram name="第 1 页" id="d0GFygFnVdw7StZ2qy6e">
    <mxGraphModel dx="1868" dy="1760" grid="1" gridSize="10" guides="1" tooltips="1" connect="1" arrows="1" fold="1" page="1" pageScale="1" pageWidth="827" pageHeight="1169" math="0" shadow="0">
      <root>
        <mxCell id="0" />
        <mxCell id="1" parent="0" />
        <UserObject label="" plantUmlData="{&#xa;  &quot;data&quot;: &quot;@startuml\nactor 用户\nparticipant \&quot;API网关\&quot; as Gateway\nparticipant \&quot;AuthFilter\&quot; as AuthFilter\nparticipant \&quot;Question\\nController\&quot; as Controller\nparticipant \&quot;user\\nFeignClient\&quot; as FeignClient\nparticipant \&quot;Redisson\\nLimiter\&quot; as Limiter\nparticipant \&quot;QuestionSubmit\\nService\&quot; as QuestionSubmitService\nparticipant \&quot;DataBase\\n（MySQL）\&quot; as DB\nparticipant \&quot;RabbitMQ\&quot; as Producer\n\nskinparam responseMessageBelowArrow true\n用户 -&gt; Gateway: HTTP POST /question_submit/do\nactivate 用户\n\nactivate Gateway\n\nGateway -&gt; AuthFilter: 鉴权过滤\nactivate AuthFilter\nalt 鉴权成功\n    Gateway &lt;-- AuthFilter: 鉴权通过\n    deactivate AuthFilter\n\n    Gateway -&gt; Controller: 调用 #doQuestionSubmit\n    activate Controller\n    \n    Controller -&gt; Controller: 解析请求参数并组装\n    Controller -&gt; Controller: 校验参数（空白校验）\n    \n    alt 校验失败\n        Gateway &lt;-- Controller: 抛出异常\n        deactivate Controller\n        用户 &lt;-- Gateway: 返回异常原因\n        deactivate Gateway\n    \n    activate Controller\n    end\n\n    Controller -&gt; FeignClient: 获取登录用户信息\\n #getLoginUser()\n    activate FeignClient\n    Controller &lt;-- FeignClient: 返回用户信息\n    deactivate FeignClient\n    \n    Controller -&gt; Limiter: 进行限流操作\\n #doRateLimit()\n    activate Limiter\n    alt 未通过限流\n        Controller &lt;-- Limiter: 返回限流结果\n        deactivate Limiter\n\n        Gateway &lt;-- Controller: 返回限流错误\n        deactivate Controller\n        activate Gateway\n        用户 &lt;-- Gateway: 返回错误信息\n        deactivate Gateway\n\n        activate Limiter\n    else 通过限流\n        Controller &lt;-- Limiter: 返回限流结果\n        deactivate Limiter\n\n        activate Controller\n        Controller -&gt; QuestionSubmitService: 执行提交操作\\n #doQuestionSubmit()\n        deactivate Controller\n        activate QuestionSubmitService\n        \n        QuestionSubmitService -&gt; QuestionSubmitService: 校验编程语言\\n是否合法\n        alt 语言非法\n            Controller &lt;-- QuestionSubmitService: 抛出异常\n            deactivate QuestionSubmitService\n\n            activate Controller\n            Gateway &lt;-- Controller: 返回错误信息\n            deactivate Controller\n\n            activate Gateway\n            用户 &lt;-- Gateway: 返回错误信息\n            deactivate Gateway\n\n        activate QuestionSubmitService\n        end\n        \n        QuestionSubmitService -&gt; DB: 查询题目是否存在\n\n        activate DB\n        DB --&gt; QuestionSubmitService: 返回查询结果\n        deactivate DB\n        \n        alt 题目不存在\n            Controller &lt;-- QuestionSubmitService: 抛出异常\n        deactivate QuestionSubmitService\n\n            activate Controller\n            Gateway &lt;-- Controller: 返回错误信息\n            deactivate Controller\n\n            activate Gateway\n            用户 &lt;-- Gateway: 返回错误信息\n            deactivate Gateway\n\n        activate QuestionSubmitService\n        end\n        \n        QuestionSubmitService -&gt; DB: 更新题目提交数\\n (带锁操作)\n        activate DB\n        DB --&gt; QuestionSubmitService: 更新结果\n        deactivate DB\n        \n        alt 更新失败\n            Controller &lt;-- QuestionSubmitService: 抛出异常\n            deactivate QuestionSubmitService\n\n            activate Controller\n            Gateway &lt;-- Controller: 返回错误信息\n            deactivate Controller\n\n            activate Gateway\n            用户 &lt;-- Gateway: 返回错误信息\n            deactivate Gateway\n\n        activate QuestionSubmitService\n        end\n        \n        QuestionSubmitService -&gt; DB: 插入新提交记录\n        activate DB\n        DB --&gt; QuestionSubmitService: 插入结果\n        deactivate DB\n        \n        alt 插入失败\n            Controller &lt;-- QuestionSubmitService: 抛出异常\n            deactivate QuestionSubmitService\n\n            activate Controller\n            Gateway &lt;-- Controller: 返回错误信息\n            deactivate Controller\n\n            activate Gateway\n            用户 &lt;-- Gateway: 返回错误信息\n            deactivate Gateway\n\n        activate QuestionSubmitService\n        end\n        \n        QuestionSubmitService -&gt; Producer: 发送消息至消息队列\n        activate Producer\n        Producer --&gt; QuestionSubmitService: 发送确认\n        deactivate Producer\n        \n\n\n            Controller &lt;-- QuestionSubmitService: 返回提交ID\n            deactivate QuestionSubmitService\n\n            activate Controller\n            Gateway &lt;-- Controller: 返回结果\n            deactivate Controller\n\n            activate Gateway\n            用户 &lt;-- Gateway: 返回提交结果\n            deactivate Gateway\n\n    activate AuthFilter\n    end\n\nelse 鉴权失败\n    Gateway &lt;-- AuthFilter: 鉴权失败\n    deactivate AuthFilter\n    \n    activate Gateway\n    用户 &lt;-- Gateway: 返回401\n    deactivate Gateway\nend\n\ndeactivate 用户\n@enduml&quot;,&#xa;  &quot;format&quot;: &quot;svg&quot;&#xa;}" id="5Q3B4Zy9wCO_dcvKMMum-1">
          <mxCell style="shape=image;noLabel=1;verticalAlign=top;aspect=fixed;imageAspect=0;image=data:image/svg+xml,PHN2ZyB4bWxucz0iaHR0cDovL3d3dy53My5vcmcvMjAwMC9zdmciIHhtbG5zOnhsaW5rPSJodHRwOi8vd3d3LnczLm9yZy8xOTk5L3hsaW5rIiBjb250ZW50U3R5bGVUeXBlPSJ0ZXh0L2NzcyIgZGF0YS1kaWFncmFtLXR5cGU9IlNFUVVFTkNFIiBoZWlnaHQ9IjE2OTdweCIgcHJlc2VydmVBc3BlY3RSYXRpbz0ibm9uZSIgc3R5bGU9IndpZHRoOjEwODNweDtoZWlnaHQ6MTY5N3B4O2JhY2tncm91bmQ6I0ZGRkZGRjsiIHZlcnNpb249IjEuMSIgdmlld0JveD0iMCAwIDEwODMgMTY5NyIgd2lkdGg9IjEwODNweCIgem9vbUFuZFBhbj0ibWFnbmlmeSI+PGRlZnMvPjxnPjxnPjx0aXRsZT4mIzI5OTkyOyYjMjUxNDM7PC90aXRsZT48cmVjdCBmaWxsPSIjRkZGRkZGIiBoZWlnaHQ9IjE0OTcuOTkyMiIgc3R5bGU9InN0cm9rZTojMTgxODE4O3N0cm9rZS13aWR0aDoxOyIgd2lkdGg9IjEwIiB4PSI1MiIgeT0iMTA5Ljg5ODQiLz48L2c+PGc+PHRpdGxlPkFQSSYjMzI1OTM7JiMyMDg1MTs8L3RpdGxlPjxyZWN0IGZpbGw9IiNGRkZGRkYiIGhlaWdodD0iMjUxLjMxMjUiIHN0eWxlPSJzdHJva2U6IzE4MTgxODtzdHJva2Utd2lkdGg6MTsiIHdpZHRoPSIxMCIgeD0iMjY0LjUiIHk9IjEwOS44OTg0Ii8+PC9nPjxnPjx0aXRsZT5BUEkmIzMyNTkzOyYjMjA4NTE7PC90aXRsZT48cmVjdCBmaWxsPSIjRkZGRkZGIiBoZWlnaHQ9IjI3LjkxNDEiIHN0eWxlPSJzdHJva2U6IzE4MTgxODtzdHJva2Utd2lkdGg6MTsiIHdpZHRoPSIxMCIgeD0iMjY0LjUiIHk9IjU1OC41MjM0Ii8+PC9nPjxnPjx0aXRsZT5BUEkmIzMyNTkzOyYjMjA4NTE7PC90aXRsZT48cmVjdCBmaWxsPSIjRkZGRkZGIiBoZWlnaHQ9IjI3LjkxNDEiIHN0eWxlPSJzdHJva2U6IzE4MTgxODtzdHJva2Utd2lkdGg6MTsiIHdpZHRoPSIxMCIgeD0iMjY0LjUiIHk9IjgwMy41MjM0Ii8+PC9nPjxnPjx0aXRsZT5BUEkmIzMyNTkzOyYjMjA4NTE7PC90aXRsZT48cmVjdCBmaWxsPSIjRkZGRkZGIiBoZWlnaHQ9IjI3LjkxNDEiIHN0eWxlPSJzdHJva2U6IzE4MTgxODtzdHJva2Utd2lkdGg6MTsiIHdpZHRoPSIxMCIgeD0iMjY0LjUiIHk9Ijk3My4wMDc4Ii8+PC9nPjxnPjx0aXRsZT5BUEkmIzMyNTkzOyYjMjA4NTE7PC90aXRsZT48cmVjdCBmaWxsPSIjRkZGRkZGIiBoZWlnaHQ9IjI3LjkxNDEiIHN0eWxlPSJzdHJva2U6IzE4MTgxODtzdHJva2Utd2lkdGg6MTsiIHdpZHRoPSIxMCIgeD0iMjY0LjUiIHk9IjExNTYuNDA2MyIvPjwvZz48Zz48dGl0bGU+QVBJJiMzMjU5MzsmIzIwODUxOzwvdGl0bGU+PHJlY3QgZmlsbD0iI0ZGRkZGRiIgaGVpZ2h0PSIyNy45MTQxIiBzdHlsZT0ic3Ryb2tlOiMxODE4MTg7c3Ryb2tlLXdpZHRoOjE7IiB3aWR0aD0iMTAiIHg9IjI2NC41IiB5PSIxMzI1Ljg5MDYiLz48L2c+PGc+PHRpdGxlPkFQSSYjMzI1OTM7JiMyMDg1MTs8L3RpdGxlPjxyZWN0IGZpbGw9IiNGRkZGRkYiIGhlaWdodD0iMjcuOTE0MSIgc3R5bGU9InN0cm9rZTojMTgxODE4O3N0cm9rZS13aWR0aDoxOyIgd2lkdGg9IjEwIiB4PSIyNjQuNSIgeT0iMTQ3Mi40NjA5Ii8+PC9nPjxnPjx0aXRsZT5BUEkmIzMyNTkzOyYjMjA4NTE7PC90aXRsZT48cmVjdCBmaWxsPSIjRkZGRkZGIiBoZWlnaHQ9IjI3LjkxNDEiIHN0eWxlPSJzdHJva2U6IzE4MTgxODtzdHJva2Utd2lkdGg6MTsiIHdpZHRoPSIxMCIgeD0iMjY0LjUiIHk9IjE1NDkuMDYyNSIvPjwvZz48Zz48dGl0bGU+QXV0aEZpbHRlcjwvdGl0bGU+PHJlY3QgZmlsbD0iI0ZGRkZGRiIgaGVpZ2h0PSIzNC45MTQxIiBzdHlsZT0ic3Ryb2tlOiMxODE4MTg7c3Ryb2tlLXdpZHRoOjE7IiB3aWR0aD0iMTAiIHg9IjM1MC41IiB5PSIxMzcuODEyNSIvPjwvZz48Zz48dGl0bGU+QXV0aEZpbHRlcjwvdGl0bGU+PHJlY3QgZmlsbD0iI0ZGRkZGRiIgaGVpZ2h0PSI0OC42ODc1IiBzdHlsZT0ic3Ryb2tlOiMxODE4MTg7c3Ryb2tlLXdpZHRoOjE7IiB3aWR0aD0iMTAiIHg9IjM1MC41IiB5PSIxNTAwLjM3NSIvPjwvZz48Zz48dGl0bGU+UXVlc3Rpb248L3RpdGxlPjxyZWN0IGZpbGw9IiNGRkZGRkYiIGhlaWdodD0iMTE2Ljc0MjIiIHN0eWxlPSJzdHJva2U6IzE4MTgxODtzdHJva2Utd2lkdGg6MTsiIHdpZHRoPSIxMCIgeD0iNDQ0LjUiIHk9IjIxNi41NTQ3Ii8+PC9nPjxnPjx0aXRsZT5RdWVzdGlvbjwvdGl0bGU+PHJlY3QgZmlsbD0iI0ZGRkZGRiIgaGVpZ2h0PSIxOTcuMzEyNSIgc3R5bGU9InN0cm9rZTojMTgxODE4O3N0cm9rZS13aWR0aDoxOyIgd2lkdGg9IjEwIiB4PSI0NDQuNSIgeT0iMzYxLjIxMDkiLz48L2c+PGc+PHRpdGxlPlF1ZXN0aW9uPC90aXRsZT48cmVjdCBmaWxsPSIjRkZGRkZGIiBoZWlnaHQ9IjU3Ljc0MjIiIHN0eWxlPSJzdHJva2U6IzE4MTgxODtzdHJva2Utd2lkdGg6MTsiIHdpZHRoPSIxMCIgeD0iNDQ0LjUiIHk9IjYyOC4xMjUiLz48L2c+PGc+PHRpdGxlPlF1ZXN0aW9uPC90aXRsZT48cmVjdCBmaWxsPSIjRkZGRkZGIiBoZWlnaHQ9IjI3LjkxNDEiIHN0eWxlPSJzdHJva2U6IzE4MTgxODtzdHJva2Utd2lkdGg6MTsiIHdpZHRoPSIxMCIgeD0iNDQ0LjUiIHk9Ijc3NS42MDk0Ii8+PC9nPjxnPjx0aXRsZT5RdWVzdGlvbjwvdGl0bGU+PHJlY3QgZmlsbD0iI0ZGRkZGRiIgaGVpZ2h0PSIyNy45MTQxIiBzdHlsZT0ic3Ryb2tlOiMxODE4MTg7c3Ryb2tlLXdpZHRoOjE7IiB3aWR0aD0iMTAiIHg9IjQ0NC41IiB5PSI5NDUuMDkzOCIvPjwvZz48Zz48dGl0bGU+UXVlc3Rpb248L3RpdGxlPjxyZWN0IGZpbGw9IiNGRkZGRkYiIGhlaWdodD0iMjcuOTE0MSIgc3R5bGU9InN0cm9rZTojMTgxODE4O3N0cm9rZS13aWR0aDoxOyIgd2lkdGg9IjEwIiB4PSI0NDQuNSIgeT0iMTEyOC40OTIyIi8+PC9nPjxnPjx0aXRsZT5RdWVzdGlvbjwvdGl0bGU+PHJlY3QgZmlsbD0iI0ZGRkZGRiIgaGVpZ2h0PSIyNy45MTQxIiBzdHlsZT0ic3Ryb2tlOiMxODE4MTg7c3Ryb2tlLXdpZHRoOjE7IiB3aWR0aD0iMTAiIHg9IjQ0NC41IiB5PSIxMjk3Ljk3NjYiLz48L2c+PGc+PHRpdGxlPlF1ZXN0aW9uPC90aXRsZT48cmVjdCBmaWxsPSIjRkZGRkZGIiBoZWlnaHQ9IjI3LjkxNDEiIHN0eWxlPSJzdHJva2U6IzE4MTgxODtzdHJva2Utd2lkdGg6MTsiIHdpZHRoPSIxMCIgeD0iNDQ0LjUiIHk9IjE0NDQuNTQ2OSIvPjwvZz48Zz48dGl0bGU+dXNlcjwvdGl0bGU+PHJlY3QgZmlsbD0iI0ZGRkZGRiIgaGVpZ2h0PSIxMiIgc3R5bGU9InN0cm9rZTojMTgxODE4O3N0cm9rZS13aWR0aDoxOyIgd2lkdGg9IjEwIiB4PSI2MDguNSIgeT0iNDI1Ljk1MzEiLz48L2c+PGc+PHRpdGxlPlJlZGlzc29uPC90aXRsZT48cmVjdCBmaWxsPSIjRkZGRkZGIiBoZWlnaHQ9IjM0LjkxNDEiIHN0eWxlPSJzdHJva2U6IzE4MTgxODtzdHJva2Utd2lkdGg6MTsiIHdpZHRoPSIxMCIgeD0iNjk5IiB5PSI0OTUuNjk1MyIvPjwvZz48Zz48dGl0bGU+UmVkaXNzb248L3RpdGxlPjxyZWN0IGZpbGw9IiNGRkZGRkYiIGhlaWdodD0iNDEuNjg3NSIgc3R5bGU9InN0cm9rZTojMTgxODE4O3N0cm9rZS13aWR0aDoxOyIgd2lkdGg9IjEwIiB4PSI2OTkiIHk9IjU4Ni40Mzc1Ii8+PC9nPjxnPjx0aXRsZT5RdWVzdGlvblN1Ym1pdDwvdGl0bGU+PHJlY3QgZmlsbD0iI0ZGRkZGRiIgaGVpZ2h0PSI4OS43NDIyIiBzdHlsZT0ic3Ryb2tlOiMxODE4MTg7c3Ryb2tlLXdpZHRoOjE7IiB3aWR0aD0iMTAiIHg9IjgwMCIgeT0iNjg1Ljg2NzIiLz48L2c+PGc+PHRpdGxlPlF1ZXN0aW9uU3VibWl0PC90aXRsZT48cmVjdCBmaWxsPSIjRkZGRkZGIiBoZWlnaHQ9IjExMy42NTYzIiBzdHlsZT0ic3Ryb2tlOiMxODE4MTg7c3Ryb2tlLXdpZHRoOjE7IiB3aWR0aD0iMTAiIHg9IjgwMCIgeT0iODMxLjQzNzUiLz48L2c+PGc+PHRpdGxlPlF1ZXN0aW9uU3VibWl0PC90aXRsZT48cmVjdCBmaWxsPSIjRkZGRkZGIiBoZWlnaHQ9IjEyNy41NzAzIiBzdHlsZT0ic3Ryb2tlOiMxODE4MTg7c3Ryb2tlLXdpZHRoOjE7IiB3aWR0aD0iMTAiIHg9IjgwMCIgeT0iMTAwMC45MjE5Ii8+PC9nPjxnPjx0aXRsZT5RdWVzdGlvblN1Ym1pdDwvdGl0bGU+PHJlY3QgZmlsbD0iI0ZGRkZGRiIgaGVpZ2h0PSIxMTMuNjU2MyIgc3R5bGU9InN0cm9rZTojMTgxODE4O3N0cm9rZS13aWR0aDoxOyIgd2lkdGg9IjEwIiB4PSI4MDAiIHk9IjExODQuMzIwMyIvPjwvZz48Zz48dGl0bGU+UXVlc3Rpb25TdWJtaXQ8L3RpdGxlPjxyZWN0IGZpbGw9IiNGRkZGRkYiIGhlaWdodD0iOTAuNzQyMiIgc3R5bGU9InN0cm9rZTojMTgxODE4O3N0cm9rZS13aWR0aDoxOyIgd2lkdGg9IjEwIiB4PSI4MDAiIHk9IjEzNTMuODA0NyIvPjwvZz48Zz48dGl0bGU+RGF0YUJhc2U8L3RpdGxlPjxyZWN0IGZpbGw9IiNGRkZGRkYiIGhlaWdodD0iMjcuOTE0MSIgc3R5bGU9InN0cm9rZTojMTgxODE4O3N0cm9rZS13aWR0aDoxOyIgd2lkdGg9IjEwIiB4PSI5MzMiIHk9Ijg4Mi4yNjU2Ii8+PC9nPjxnPjx0aXRsZT5EYXRhQmFzZTwvdGl0bGU+PHJlY3QgZmlsbD0iI0ZGRkZGRiIgaGVpZ2h0PSIyNy45MTQxIiBzdHlsZT0ic3Ryb2tlOiMxODE4MTg7c3Ryb2tlLXdpZHRoOjE7IiB3aWR0aD0iMTAiIHg9IjkzMyIgeT0iMTA2NS42NjQxIi8+PC9nPjxnPjx0aXRsZT5EYXRhQmFzZTwvdGl0bGU+PHJlY3QgZmlsbD0iI0ZGRkZGRiIgaGVpZ2h0PSIyNy45MTQxIiBzdHlsZT0ic3Ryb2tlOiMxODE4MTg7c3Ryb2tlLXdpZHRoOjE7IiB3aWR0aD0iMTAiIHg9IjkzMyIgeT0iMTIzNS4xNDg0Ii8+PC9nPjxnPjx0aXRsZT5SYWJiaXRNUTwvdGl0bGU+PHJlY3QgZmlsbD0iI0ZGRkZGRiIgaGVpZ2h0PSIyNy45MTQxIiBzdHlsZT0ic3Ryb2tlOiMxODE4MTg7c3Ryb2tlLXdpZHRoOjE7IiB3aWR0aD0iMTAiIHg9IjEwMTYuNSIgeT0iMTQwNC42MzI4Ii8+PC9nPjxyZWN0IGZpbGw9Im5vbmUiIGhlaWdodD0iMTQ0OC4wNzgxIiBzdHlsZT0ic3Ryb2tlOiMwMDAwMDA7c3Ryb2tlLXdpZHRoOjEuNTsiIHdpZHRoPSIxMDY2LjUiIHg9IjEwIiB5PSIxNTIuODEyNSIvPjxyZWN0IGZpbGw9Im5vbmUiIGhlaWdodD0iNzEuNzQyMiIgc3R5bGU9InN0cm9rZTojMDAwMDAwO3N0cm9rZS13aWR0aDoxLjU7IiB3aWR0aD0iNDcxLjUiIHg9IjMwIiB5PSIzMTMuMzgyOCIvPjxyZWN0IGZpbGw9Im5vbmUiIGhlaWdodD0iMTAxMy41OTM4IiBzdHlsZT0ic3Ryb2tlOiMwMDAwMDA7c3Ryb2tlLXdpZHRoOjEuNTsiIHdpZHRoPSIxMDQ2LjUiIHg9IjIwIiB5PSI1MTAuNjk1MyIvPjxyZWN0IGZpbGw9Im5vbmUiIGhlaWdodD0iOTkuNjU2MyIgc3R5bGU9InN0cm9rZTojMDAwMDAwO3N0cm9rZS13aWR0aDoxLjU7IiB3aWR0aD0iODQxIiB4PSIzMCIgeT0iNzU1LjY5NTMiLz48cmVjdCBmaWxsPSJub25lIiBoZWlnaHQ9Ijk5LjY1NjMiIHN0eWxlPSJzdHJva2U6IzAwMDAwMDtzdHJva2Utd2lkdGg6MS41OyIgd2lkdGg9Ijg0MSIgeD0iMzAiIHk9IjkyNS4xNzk3Ii8+PHJlY3QgZmlsbD0ibm9uZSIgaGVpZ2h0PSI5OS42NTYzIiBzdHlsZT0ic3Ryb2tlOiMwMDAwMDA7c3Ryb2tlLXdpZHRoOjEuNTsiIHdpZHRoPSI4NDEiIHg9IjMwIiB5PSIxMTA4LjU3ODEiLz48cmVjdCBmaWxsPSJub25lIiBoZWlnaHQ9Ijk5LjY1NjMiIHN0eWxlPSJzdHJva2U6IzAwMDAwMDtzdHJva2Utd2lkdGg6MS41OyIgd2lkdGg9Ijg0MSIgeD0iMzAiIHk9IjEyNzguMDYyNSIvPjxnPjx0aXRsZT4mIzI5OTkyOyYjMjUxNDM7PC90aXRsZT48cmVjdCBmaWxsPSIjMDAwMDAwIiBmaWxsLW9wYWNpdHk9IjAuMDAwMDAiIGhlaWdodD0iMTUzNy45MDYzIiB3aWR0aD0iOCIgeD0iNTMiIHk9Ijc5Ljk4NDQiLz48bGluZSBzdHlsZT0ic3Ryb2tlOiMxODE4MTg7c3Ryb2tlLXdpZHRoOjAuNTtzdHJva2UtZGFzaGFycmF5OjUuMCw1LjA7IiB4MT0iNTciIHgyPSI1NyIgeTE9Ijc5Ljk4NDQiIHkyPSIxNjE3Ljg5MDYiLz48L2c+PGc+PHRpdGxlPkFQSSYjMzI1OTM7JiMyMDg1MTs8L3RpdGxlPjxyZWN0IGZpbGw9IiMwMDAwMDAiIGZpbGwtb3BhY2l0eT0iMC4wMDAwMCIgaGVpZ2h0PSIxNTM3LjkwNjMiIHdpZHRoPSI4IiB4PSIyNjUuNSIgeT0iNzkuOTg0NCIvPjxsaW5lIHN0eWxlPSJzdHJva2U6IzE4MTgxODtzdHJva2Utd2lkdGg6MC41O3N0cm9rZS1kYXNoYXJyYXk6NS4wLDUuMDsiIHgxPSIyNjkiIHgyPSIyNjkiIHkxPSI3OS45ODQ0IiB5Mj0iMTYxNy44OTA2Ii8+PC9nPjxnPjx0aXRsZT5BdXRoRmlsdGVyPC90aXRsZT48cmVjdCBmaWxsPSIjMDAwMDAwIiBmaWxsLW9wYWNpdHk9IjAuMDAwMDAiIGhlaWdodD0iMTUzNy45MDYzIiB3aWR0aD0iOCIgeD0iMzUxLjUiIHk9Ijc5Ljk4NDQiLz48bGluZSBzdHlsZT0ic3Ryb2tlOiMxODE4MTg7c3Ryb2tlLXdpZHRoOjAuNTtzdHJva2UtZGFzaGFycmF5OjUuMCw1LjA7IiB4MT0iMzU1LjUiIHgyPSIzNTUuNSIgeTE9Ijc5Ljk4NDQiIHkyPSIxNjE3Ljg5MDYiLz48L2c+PGc+PHRpdGxlPlF1ZXN0aW9uPC90aXRsZT48cmVjdCBmaWxsPSIjMDAwMDAwIiBmaWxsLW9wYWNpdHk9IjAuMDAwMDAiIGhlaWdodD0iMTUzNy45MDYzIiB3aWR0aD0iOCIgeD0iNDQ1LjUiIHk9Ijc5Ljk4NDQiLz48bGluZSBzdHlsZT0ic3Ryb2tlOiMxODE4MTg7c3Ryb2tlLXdpZHRoOjAuNTtzdHJva2UtZGFzaGFycmF5OjUuMCw1LjA7IiB4MT0iNDQ5LjUiIHgyPSI0NDkuNSIgeTE9Ijc5Ljk4NDQiIHkyPSIxNjE3Ljg5MDYiLz48L2c+PGc+PHRpdGxlPnVzZXI8L3RpdGxlPjxyZWN0IGZpbGw9IiMwMDAwMDAiIGZpbGwtb3BhY2l0eT0iMC4wMDAwMCIgaGVpZ2h0PSIxNTM3LjkwNjMiIHdpZHRoPSI4IiB4PSI2MDkuNSIgeT0iNzkuOTg0NCIvPjxsaW5lIHN0eWxlPSJzdHJva2U6IzE4MTgxODtzdHJva2Utd2lkdGg6MC41O3N0cm9rZS1kYXNoYXJyYXk6NS4wLDUuMDsiIHgxPSI2MTMiIHgyPSI2MTMiIHkxPSI3OS45ODQ0IiB5Mj0iMTYxNy44OTA2Ii8+PC9nPjxnPjx0aXRsZT5SZWRpc3NvbjwvdGl0bGU+PHJlY3QgZmlsbD0iIzAwMDAwMCIgZmlsbC1vcGFjaXR5PSIwLjAwMDAwIiBoZWlnaHQ9IjE1MzcuOTA2MyIgd2lkdGg9IjgiIHg9IjcwMCIgeT0iNzkuOTg0NCIvPjxsaW5lIHN0eWxlPSJzdHJva2U6IzE4MTgxODtzdHJva2Utd2lkdGg6MC41O3N0cm9rZS1kYXNoYXJyYXk6NS4wLDUuMDsiIHgxPSI3MDQiIHgyPSI3MDQiIHkxPSI3OS45ODQ0IiB5Mj0iMTYxNy44OTA2Ii8+PC9nPjxnPjx0aXRsZT5RdWVzdGlvblN1Ym1pdDwvdGl0bGU+PHJlY3QgZmlsbD0iIzAwMDAwMCIgZmlsbC1vcGFjaXR5PSIwLjAwMDAwIiBoZWlnaHQ9IjE1MzcuOTA2MyIgd2lkdGg9IjgiIHg9IjgwMSIgeT0iNzkuOTg0NCIvPjxsaW5lIHN0eWxlPSJzdHJva2U6IzE4MTgxODtzdHJva2Utd2lkdGg6MC41O3N0cm9rZS1kYXNoYXJyYXk6NS4wLDUuMDsiIHgxPSI4MDUiIHgyPSI4MDUiIHkxPSI3OS45ODQ0IiB5Mj0iMTYxNy44OTA2Ii8+PC9nPjxnPjx0aXRsZT5EYXRhQmFzZTwvdGl0bGU+PHJlY3QgZmlsbD0iIzAwMDAwMCIgZmlsbC1vcGFjaXR5PSIwLjAwMDAwIiBoZWlnaHQ9IjE1MzcuOTA2MyIgd2lkdGg9IjgiIHg9IjkzNCIgeT0iNzkuOTg0NCIvPjxsaW5lIHN0eWxlPSJzdHJva2U6IzE4MTgxODtzdHJva2Utd2lkdGg6MC41O3N0cm9rZS1kYXNoYXJyYXk6NS4wLDUuMDsiIHgxPSI5MzcuNSIgeDI9IjkzNy41IiB5MT0iNzkuOTg0NCIgeTI9IjE2MTcuODkwNiIvPjwvZz48Zz48dGl0bGU+UmFiYml0TVE8L3RpdGxlPjxyZWN0IGZpbGw9IiMwMDAwMDAiIGZpbGwtb3BhY2l0eT0iMC4wMDAwMCIgaGVpZ2h0PSIxNTM3LjkwNjMiIHdpZHRoPSI4IiB4PSIxMDE3LjUiIHk9Ijc5Ljk4NDQiLz48bGluZSBzdHlsZT0ic3Ryb2tlOiMxODE4MTg7c3Ryb2tlLXdpZHRoOjAuNTtzdHJva2UtZGFzaGFycmF5OjUuMCw1LjA7IiB4MT0iMTAyMS41IiB4Mj0iMTAyMS41IiB5MT0iNzkuOTg0NCIgeTI9IjE2MTcuODkwNiIvPjwvZz48ZyBjbGFzcz0icGFydGljaXBhbnQgcGFydGljaXBhbnQtaGVhZCIgZGF0YS1wYXJ0aWNpcGFudD0iJiMyOTk5MjsmIzI1MTQzOyI+PHRleHQgZmlsbD0iIzAwMDAwMCIgZm9udC1mYW1pbHk9InNhbnMtc2VyaWYiIGZvbnQtc2l6ZT0iMTQiIGxlbmd0aEFkanVzdD0ic3BhY2luZyIgdGV4dExlbmd0aD0iMjgiIHg9IjQwIiB5PSI3OC4yMzQ0Ij4mIzI5OTkyOyYjMjUxNDM7PC90ZXh0PjxlbGxpcHNlIGN4PSI1NyIgY3k9IjEzLjUiIGZpbGw9IiNFMkUyRjAiIHJ4PSI4IiByeT0iOCIgc3R5bGU9InN0cm9rZTojMTgxODE4O3N0cm9rZS13aWR0aDowLjU7Ii8+PHBhdGggZD0iTTU3LDIxLjUgTDU3LDQ4LjUgTTQ0LDI5LjUgTDcwLDI5LjUgTTU3LDQ4LjUgTDQ0LDYzLjUgTTU3LDQ4LjUgTDcwLDYzLjUiIGZpbGw9Im5vbmUiIHN0eWxlPSJzdHJva2U6IzE4MTgxODtzdHJva2Utd2lkdGg6MC41OyIvPjwvZz48ZyBjbGFzcz0icGFydGljaXBhbnQgcGFydGljaXBhbnQtdGFpbCIgZGF0YS1wYXJ0aWNpcGFudD0iJiMyOTk5MjsmIzI1MTQzOyI+PHRleHQgZmlsbD0iIzAwMDAwMCIgZm9udC1mYW1pbHk9InNhbnMtc2VyaWYiIGZvbnQtc2l6ZT0iMTQiIGxlbmd0aEFkanVzdD0ic3BhY2luZyIgdGV4dExlbmd0aD0iMjgiIHg9IjQwIiB5PSIxNjMwLjEyNSI+JiMyOTk5MjsmIzI1MTQzOzwvdGV4dD48ZWxsaXBzZSBjeD0iNTciIGN5PSIxNjQwLjM3NSIgZmlsbD0iI0UyRTJGMCIgcng9IjgiIHJ5PSI4IiBzdHlsZT0ic3Ryb2tlOiMxODE4MTg7c3Ryb2tlLXdpZHRoOjAuNTsiLz48cGF0aCBkPSJNNTcsMTY0OC4zNzUgTDU3LDE2NzUuMzc1IE00NCwxNjU2LjM3NSBMNzAsMTY1Ni4zNzUgTTU3LDE2NzUuMzc1IEw0NCwxNjkwLjM3NSBNNTcsMTY3NS4zNzUgTDcwLDE2OTAuMzc1IiBmaWxsPSJub25lIiBzdHlsZT0ic3Ryb2tlOiMxODE4MTg7c3Ryb2tlLXdpZHRoOjAuNTsiLz48L2c+PGcgY2xhc3M9InBhcnRpY2lwYW50IHBhcnRpY2lwYW50LWhlYWQiIGRhdGEtcGFydGljaXBhbnQ9IkdhdGV3YXkiPjxyZWN0IGZpbGw9IiNFMkUyRjAiIGhlaWdodD0iMjguOTg0NCIgcng9IjIuNSIgcnk9IjIuNSIgc3R5bGU9InN0cm9rZTojMTgxODE4O3N0cm9rZS13aWR0aDowLjU7IiB3aWR0aD0iNjMiIHg9IjIzOCIgeT0iNTAiLz48dGV4dCBmaWxsPSIjMDAwMDAwIiBmb250LWZhbWlseT0ic2Fucy1zZXJpZiIgZm9udC1zaXplPSIxNCIgbGVuZ3RoQWRqdXN0PSJzcGFjaW5nIiB0ZXh0TGVuZ3RoPSI0OSIgeD0iMjQ1IiB5PSI3MC4yMzQ0Ij5BUEkmIzMyNTkzOyYjMjA4NTE7PC90ZXh0PjwvZz48ZyBjbGFzcz0icGFydGljaXBhbnQgcGFydGljaXBhbnQtdGFpbCIgZGF0YS1wYXJ0aWNpcGFudD0iR2F0ZXdheSI+PHJlY3QgZmlsbD0iI0UyRTJGMCIgaGVpZ2h0PSIyOC45ODQ0IiByeD0iMi41IiByeT0iMi41IiBzdHlsZT0ic3Ryb2tlOiMxODE4MTg7c3Ryb2tlLXdpZHRoOjAuNTsiIHdpZHRoPSI2MyIgeD0iMjM4IiB5PSIxNjE2Ljg5MDYiLz48dGV4dCBmaWxsPSIjMDAwMDAwIiBmb250LWZhbWlseT0ic2Fucy1zZXJpZiIgZm9udC1zaXplPSIxNCIgbGVuZ3RoQWRqdXN0PSJzcGFjaW5nIiB0ZXh0TGVuZ3RoPSI0OSIgeD0iMjQ1IiB5PSIxNjM3LjEyNSI+QVBJJiMzMjU5MzsmIzIwODUxOzwvdGV4dD48L2c+PGcgY2xhc3M9InBhcnRpY2lwYW50IHBhcnRpY2lwYW50LWhlYWQiIGRhdGEtcGFydGljaXBhbnQ9IkF1dGhGaWx0ZXIiPjxyZWN0IGZpbGw9IiNFMkUyRjAiIGhlaWdodD0iMjguOTg0NCIgcng9IjIuNSIgcnk9IjIuNSIgc3R5bGU9InN0cm9rZTojMTgxODE4O3N0cm9rZS13aWR0aDowLjU7IiB3aWR0aD0iODQiIHg9IjMxMy41IiB5PSI1MCIvPjx0ZXh0IGZpbGw9IiMwMDAwMDAiIGZvbnQtZmFtaWx5PSJzYW5zLXNlcmlmIiBmb250LXNpemU9IjE0IiBsZW5ndGhBZGp1c3Q9InNwYWNpbmciIHRleHRMZW5ndGg9IjcwIiB4PSIzMjAuNSIgeT0iNzAuMjM0NCI+QXV0aEZpbHRlcjwvdGV4dD48L2c+PGcgY2xhc3M9InBhcnRpY2lwYW50IHBhcnRpY2lwYW50LXRhaWwiIGRhdGEtcGFydGljaXBhbnQ9IkF1dGhGaWx0ZXIiPjxyZWN0IGZpbGw9IiNFMkUyRjAiIGhlaWdodD0iMjguOTg0NCIgcng9IjIuNSIgcnk9IjIuNSIgc3R5bGU9InN0cm9rZTojMTgxODE4O3N0cm9rZS13aWR0aDowLjU7IiB3aWR0aD0iODQiIHg9IjMxMy41IiB5PSIxNjE2Ljg5MDYiLz48dGV4dCBmaWxsPSIjMDAwMDAwIiBmb250LWZhbWlseT0ic2Fucy1zZXJpZiIgZm9udC1zaXplPSIxNCIgbGVuZ3RoQWRqdXN0PSJzcGFjaW5nIiB0ZXh0TGVuZ3RoPSI3MCIgeD0iMzIwLjUiIHk9IjE2MzcuMTI1Ij5BdXRoRmlsdGVyPC90ZXh0PjwvZz48ZyBjbGFzcz0icGFydGljaXBhbnQgcGFydGljaXBhbnQtaGVhZCIgZGF0YS1wYXJ0aWNpcGFudD0iQ29udHJvbGxlciI+PHJlY3QgZmlsbD0iI0UyRTJGMCIgaGVpZ2h0PSI0My45Njg4IiByeD0iMi41IiByeT0iMi41IiBzdHlsZT0ic3Ryb2tlOiMxODE4MTg7c3Ryb2tlLXdpZHRoOjAuNTsiIHdpZHRoPSI4NCIgeD0iNDA3LjUiIHk9IjM1LjAxNTYiLz48dGV4dCBmaWxsPSIjMDAwMDAwIiBmb250LWZhbWlseT0ic2Fucy1zZXJpZiIgZm9udC1zaXplPSIxNCIgbGVuZ3RoQWRqdXN0PSJzcGFjaW5nIiB0ZXh0TGVuZ3RoPSI1NiIgeD0iNDIxLjUiIHk9IjU1LjI1Ij5RdWVzdGlvbjwvdGV4dD48dGV4dCBmaWxsPSIjMDAwMDAwIiBmb250LWZhbWlseT0ic2Fucy1zZXJpZiIgZm9udC1zaXplPSIxNCIgbGVuZ3RoQWRqdXN0PSJzcGFjaW5nIiB0ZXh0TGVuZ3RoPSI3MCIgeD0iNDE0LjUiIHk9IjcwLjIzNDQiPkNvbnRyb2xsZXI8L3RleHQ+PC9nPjxnIGNsYXNzPSJwYXJ0aWNpcGFudCBwYXJ0aWNpcGFudC10YWlsIiBkYXRhLXBhcnRpY2lwYW50PSJDb250cm9sbGVyIj48cmVjdCBmaWxsPSIjRTJFMkYwIiBoZWlnaHQ9IjQzLjk2ODgiIHJ4PSIyLjUiIHJ5PSIyLjUiIHN0eWxlPSJzdHJva2U6IzE4MTgxODtzdHJva2Utd2lkdGg6MC41OyIgd2lkdGg9Ijg0IiB4PSI0MDcuNSIgeT0iMTYxNi44OTA2Ii8+PHRleHQgZmlsbD0iIzAwMDAwMCIgZm9udC1mYW1pbHk9InNhbnMtc2VyaWYiIGZvbnQtc2l6ZT0iMTQiIGxlbmd0aEFkanVzdD0ic3BhY2luZyIgdGV4dExlbmd0aD0iNTYiIHg9IjQyMS41IiB5PSIxNjM3LjEyNSI+UXVlc3Rpb248L3RleHQ+PHRleHQgZmlsbD0iIzAwMDAwMCIgZm9udC1mYW1pbHk9InNhbnMtc2VyaWYiIGZvbnQtc2l6ZT0iMTQiIGxlbmd0aEFkanVzdD0ic3BhY2luZyIgdGV4dExlbmd0aD0iNzAiIHg9IjQxNC41IiB5PSIxNjUyLjEwOTQiPkNvbnRyb2xsZXI8L3RleHQ+PC9nPjxnIGNsYXNzPSJwYXJ0aWNpcGFudCBwYXJ0aWNpcGFudC1oZWFkIiBkYXRhLXBhcnRpY2lwYW50PSJGZWlnbkNsaWVudCI+PHJlY3QgZmlsbD0iI0UyRTJGMCIgaGVpZ2h0PSI0My45Njg4IiByeD0iMi41IiByeT0iMi41IiBzdHlsZT0ic3Ryb2tlOiMxODE4MTg7c3Ryb2tlLXdpZHRoOjAuNTsiIHdpZHRoPSI5MSIgeD0iNTY4IiB5PSIzNS4wMTU2Ii8+PHRleHQgZmlsbD0iIzAwMDAwMCIgZm9udC1mYW1pbHk9InNhbnMtc2VyaWYiIGZvbnQtc2l6ZT0iMTQiIGxlbmd0aEFkanVzdD0ic3BhY2luZyIgdGV4dExlbmd0aD0iMjgiIHg9IjU5OS41IiB5PSI1NS4yNSI+dXNlcjwvdGV4dD48dGV4dCBmaWxsPSIjMDAwMDAwIiBmb250LWZhbWlseT0ic2Fucy1zZXJpZiIgZm9udC1zaXplPSIxNCIgbGVuZ3RoQWRqdXN0PSJzcGFjaW5nIiB0ZXh0TGVuZ3RoPSI3NyIgeD0iNTc1IiB5PSI3MC4yMzQ0Ij5GZWlnbkNsaWVudDwvdGV4dD48L2c+PGcgY2xhc3M9InBhcnRpY2lwYW50IHBhcnRpY2lwYW50LXRhaWwiIGRhdGEtcGFydGljaXBhbnQ9IkZlaWduQ2xpZW50Ij48cmVjdCBmaWxsPSIjRTJFMkYwIiBoZWlnaHQ9IjQzLjk2ODgiIHJ4PSIyLjUiIHJ5PSIyLjUiIHN0eWxlPSJzdHJva2U6IzE4MTgxODtzdHJva2Utd2lkdGg6MC41OyIgd2lkdGg9IjkxIiB4PSI1NjgiIHk9IjE2MTYuODkwNiIvPjx0ZXh0IGZpbGw9IiMwMDAwMDAiIGZvbnQtZmFtaWx5PSJzYW5zLXNlcmlmIiBmb250LXNpemU9IjE0IiBsZW5ndGhBZGp1c3Q9InNwYWNpbmciIHRleHRMZW5ndGg9IjI4IiB4PSI1OTkuNSIgeT0iMTYzNy4xMjUiPnVzZXI8L3RleHQ+PHRleHQgZmlsbD0iIzAwMDAwMCIgZm9udC1mYW1pbHk9InNhbnMtc2VyaWYiIGZvbnQtc2l6ZT0iMTQiIGxlbmd0aEFkanVzdD0ic3BhY2luZyIgdGV4dExlbmd0aD0iNzciIHg9IjU3NSIgeT0iMTY1Mi4xMDk0Ij5GZWlnbkNsaWVudDwvdGV4dD48L2c+PGcgY2xhc3M9InBhcnRpY2lwYW50IHBhcnRpY2lwYW50LWhlYWQiIGRhdGEtcGFydGljaXBhbnQ9IkxpbWl0ZXIiPjxyZWN0IGZpbGw9IiNFMkUyRjAiIGhlaWdodD0iNDMuOTY4OCIgcng9IjIuNSIgcnk9IjIuNSIgc3R5bGU9InN0cm9rZTojMTgxODE4O3N0cm9rZS13aWR0aDowLjU7IiB3aWR0aD0iNzAiIHg9IjY2OSIgeT0iMzUuMDE1NiIvPjx0ZXh0IGZpbGw9IiMwMDAwMDAiIGZvbnQtZmFtaWx5PSJzYW5zLXNlcmlmIiBmb250LXNpemU9IjE0IiBsZW5ndGhBZGp1c3Q9InNwYWNpbmciIHRleHRMZW5ndGg9IjU2IiB4PSI2NzYiIHk9IjU1LjI1Ij5SZWRpc3NvbjwvdGV4dD48dGV4dCBmaWxsPSIjMDAwMDAwIiBmb250LWZhbWlseT0ic2Fucy1zZXJpZiIgZm9udC1zaXplPSIxNCIgbGVuZ3RoQWRqdXN0PSJzcGFjaW5nIiB0ZXh0TGVuZ3RoPSI0OSIgeD0iNjc5LjUiIHk9IjcwLjIzNDQiPkxpbWl0ZXI8L3RleHQ+PC9nPjxnIGNsYXNzPSJwYXJ0aWNpcGFudCBwYXJ0aWNpcGFudC10YWlsIiBkYXRhLXBhcnRpY2lwYW50PSJMaW1pdGVyIj48cmVjdCBmaWxsPSIjRTJFMkYwIiBoZWlnaHQ9IjQzLjk2ODgiIHJ4PSIyLjUiIHJ5PSIyLjUiIHN0eWxlPSJzdHJva2U6IzE4MTgxODtzdHJva2Utd2lkdGg6MC41OyIgd2lkdGg9IjcwIiB4PSI2NjkiIHk9IjE2MTYuODkwNiIvPjx0ZXh0IGZpbGw9IiMwMDAwMDAiIGZvbnQtZmFtaWx5PSJzYW5zLXNlcmlmIiBmb250LXNpemU9IjE0IiBsZW5ndGhBZGp1c3Q9InNwYWNpbmciIHRleHRMZW5ndGg9IjU2IiB4PSI2NzYiIHk9IjE2MzcuMTI1Ij5SZWRpc3NvbjwvdGV4dD48dGV4dCBmaWxsPSIjMDAwMDAwIiBmb250LWZhbWlseT0ic2Fucy1zZXJpZiIgZm9udC1zaXplPSIxNCIgbGVuZ3RoQWRqdXN0PSJzcGFjaW5nIiB0ZXh0TGVuZ3RoPSI0OSIgeD0iNjc5LjUiIHk9IjE2NTIuMTA5NCI+TGltaXRlcjwvdGV4dD48L2c+PGcgY2xhc3M9InBhcnRpY2lwYW50IHBhcnRpY2lwYW50LWhlYWQiIGRhdGEtcGFydGljaXBhbnQ9IlF1ZXN0aW9uU3VibWl0U2VydmljZSI+PHJlY3QgZmlsbD0iI0UyRTJGMCIgaGVpZ2h0PSI0My45Njg4IiByeD0iMi41IiByeT0iMi41IiBzdHlsZT0ic3Ryb2tlOiMxODE4MTg7c3Ryb2tlLXdpZHRoOjAuNTsiIHdpZHRoPSIxMTIiIHg9Ijc0OSIgeT0iMzUuMDE1NiIvPjx0ZXh0IGZpbGw9IiMwMDAwMDAiIGZvbnQtZmFtaWx5PSJzYW5zLXNlcmlmIiBmb250LXNpemU9IjE0IiBsZW5ndGhBZGp1c3Q9InNwYWNpbmciIHRleHRMZW5ndGg9Ijk4IiB4PSI3NTYiIHk9IjU1LjI1Ij5RdWVzdGlvblN1Ym1pdDwvdGV4dD48dGV4dCBmaWxsPSIjMDAwMDAwIiBmb250LWZhbWlseT0ic2Fucy1zZXJpZiIgZm9udC1zaXplPSIxNCIgbGVuZ3RoQWRqdXN0PSJzcGFjaW5nIiB0ZXh0TGVuZ3RoPSI0OSIgeD0iNzgwLjUiIHk9IjcwLjIzNDQiPlNlcnZpY2U8L3RleHQ+PC9nPjxnIGNsYXNzPSJwYXJ0aWNpcGFudCBwYXJ0aWNpcGFudC10YWlsIiBkYXRhLXBhcnRpY2lwYW50PSJRdWVzdGlvblN1Ym1pdFNlcnZpY2UiPjxyZWN0IGZpbGw9IiNFMkUyRjAiIGhlaWdodD0iNDMuOTY4OCIgcng9IjIuNSIgcnk9IjIuNSIgc3R5bGU9InN0cm9rZTojMTgxODE4O3N0cm9rZS13aWR0aDowLjU7IiB3aWR0aD0iMTEyIiB4PSI3NDkiIHk9IjE2MTYuODkwNiIvPjx0ZXh0IGZpbGw9IiMwMDAwMDAiIGZvbnQtZmFtaWx5PSJzYW5zLXNlcmlmIiBmb250LXNpemU9IjE0IiBsZW5ndGhBZGp1c3Q9InNwYWNpbmciIHRleHRMZW5ndGg9Ijk4IiB4PSI3NTYiIHk9IjE2MzcuMTI1Ij5RdWVzdGlvblN1Ym1pdDwvdGV4dD48dGV4dCBmaWxsPSIjMDAwMDAwIiBmb250LWZhbWlseT0ic2Fucy1zZXJpZiIgZm9udC1zaXplPSIxNCIgbGVuZ3RoQWRqdXN0PSJzcGFjaW5nIiB0ZXh0TGVuZ3RoPSI0OSIgeD0iNzgwLjUiIHk9IjE2NTIuMTA5NCI+U2VydmljZTwvdGV4dD48L2c+PGcgY2xhc3M9InBhcnRpY2lwYW50IHBhcnRpY2lwYW50LWhlYWQiIGRhdGEtcGFydGljaXBhbnQ9IkRCIj48cmVjdCBmaWxsPSIjRTJFMkYwIiBoZWlnaHQ9IjQzLjk2ODgiIHJ4PSIyLjUiIHJ5PSIyLjUiIHN0eWxlPSJzdHJva2U6IzE4MTgxODtzdHJva2Utd2lkdGg6MC41OyIgd2lkdGg9Ijc3IiB4PSI4OTkuNSIgeT0iMzUuMDE1NiIvPjx0ZXh0IGZpbGw9IiMwMDAwMDAiIGZvbnQtZmFtaWx5PSJzYW5zLXNlcmlmIiBmb250LXNpemU9IjE0IiBsZW5ndGhBZGp1c3Q9InNwYWNpbmciIHRleHRMZW5ndGg9IjU2IiB4PSI5MTAiIHk9IjU1LjI1Ij5EYXRhQmFzZTwvdGV4dD48dGV4dCBmaWxsPSIjMDAwMDAwIiBmb250LWZhbWlseT0ic2Fucy1zZXJpZiIgZm9udC1zaXplPSIxNCIgbGVuZ3RoQWRqdXN0PSJzcGFjaW5nIiB0ZXh0TGVuZ3RoPSI2MyIgeD0iOTA2LjUiIHk9IjcwLjIzNDQiPiYjNjUyODg7TXlTUUwmIzY1Mjg5OzwvdGV4dD48L2c+PGcgY2xhc3M9InBhcnRpY2lwYW50IHBhcnRpY2lwYW50LXRhaWwiIGRhdGEtcGFydGljaXBhbnQ9IkRCIj48cmVjdCBmaWxsPSIjRTJFMkYwIiBoZWlnaHQ9IjQzLjk2ODgiIHJ4PSIyLjUiIHJ5PSIyLjUiIHN0eWxlPSJzdHJva2U6IzE4MTgxODtzdHJva2Utd2lkdGg6MC41OyIgd2lkdGg9Ijc3IiB4PSI4OTkuNSIgeT0iMTYxNi44OTA2Ii8+PHRleHQgZmlsbD0iIzAwMDAwMCIgZm9udC1mYW1pbHk9InNhbnMtc2VyaWYiIGZvbnQtc2l6ZT0iMTQiIGxlbmd0aEFkanVzdD0ic3BhY2luZyIgdGV4dExlbmd0aD0iNTYiIHg9IjkxMCIgeT0iMTYzNy4xMjUiPkRhdGFCYXNlPC90ZXh0Pjx0ZXh0IGZpbGw9IiMwMDAwMDAiIGZvbnQtZmFtaWx5PSJzYW5zLXNlcmlmIiBmb250LXNpemU9IjE0IiBsZW5ndGhBZGp1c3Q9InNwYWNpbmciIHRleHRMZW5ndGg9IjYzIiB4PSI5MDYuNSIgeT0iMTY1Mi4xMDk0Ij4mIzY1Mjg4O015U1FMJiM2NTI4OTs8L3RleHQ+PC9nPjxnIGNsYXNzPSJwYXJ0aWNpcGFudCBwYXJ0aWNpcGFudC1oZWFkIiBkYXRhLXBhcnRpY2lwYW50PSJQcm9kdWNlciI+PHJlY3QgZmlsbD0iI0UyRTJGMCIgaGVpZ2h0PSIyOC45ODQ0IiByeD0iMi41IiByeT0iMi41IiBzdHlsZT0ic3Ryb2tlOiMxODE4MTg7c3Ryb2tlLXdpZHRoOjAuNTsiIHdpZHRoPSI3MCIgeD0iOTg2LjUiIHk9IjUwIi8+PHRleHQgZmlsbD0iIzAwMDAwMCIgZm9udC1mYW1pbHk9InNhbnMtc2VyaWYiIGZvbnQtc2l6ZT0iMTQiIGxlbmd0aEFkanVzdD0ic3BhY2luZyIgdGV4dExlbmd0aD0iNTYiIHg9Ijk5My41IiB5PSI3MC4yMzQ0Ij5SYWJiaXRNUTwvdGV4dD48L2c+PGcgY2xhc3M9InBhcnRpY2lwYW50IHBhcnRpY2lwYW50LXRhaWwiIGRhdGEtcGFydGljaXBhbnQ9IlByb2R1Y2VyIj48cmVjdCBmaWxsPSIjRTJFMkYwIiBoZWlnaHQ9IjI4Ljk4NDQiIHJ4PSIyLjUiIHJ5PSIyLjUiIHN0eWxlPSJzdHJva2U6IzE4MTgxODtzdHJva2Utd2lkdGg6MC41OyIgd2lkdGg9IjcwIiB4PSI5ODYuNSIgeT0iMTYxNi44OTA2Ii8+PHRleHQgZmlsbD0iIzAwMDAwMCIgZm9udC1mYW1pbHk9InNhbnMtc2VyaWYiIGZvbnQtc2l6ZT0iMTQiIGxlbmd0aEFkanVzdD0ic3BhY2luZyIgdGV4dExlbmd0aD0iNTYiIHg9Ijk5My41IiB5PSIxNjM3LjEyNSI+UmFiYml0TVE8L3RleHQ+PC9nPjxnPjx0aXRsZT4mIzI5OTkyOyYjMjUxNDM7PC90aXRsZT48cmVjdCBmaWxsPSIjRkZGRkZGIiBoZWlnaHQ9IjE0OTcuOTkyMiIgc3R5bGU9InN0cm9rZTojMTgxODE4O3N0cm9rZS13aWR0aDoxOyIgd2lkdGg9IjEwIiB4PSI1MiIgeT0iMTA5Ljg5ODQiLz48L2c+PGc+PHRpdGxlPkFQSSYjMzI1OTM7JiMyMDg1MTs8L3RpdGxlPjxyZWN0IGZpbGw9IiNGRkZGRkYiIGhlaWdodD0iMjUxLjMxMjUiIHN0eWxlPSJzdHJva2U6IzE4MTgxODtzdHJva2Utd2lkdGg6MTsiIHdpZHRoPSIxMCIgeD0iMjY0LjUiIHk9IjEwOS44OTg0Ii8+PC9nPjxnPjx0aXRsZT5BUEkmIzMyNTkzOyYjMjA4NTE7PC90aXRsZT48cmVjdCBmaWxsPSIjRkZGRkZGIiBoZWlnaHQ9IjI3LjkxNDEiIHN0eWxlPSJzdHJva2U6IzE4MTgxODtzdHJva2Utd2lkdGg6MTsiIHdpZHRoPSIxMCIgeD0iMjY0LjUiIHk9IjU1OC41MjM0Ii8+PC9nPjxnPjx0aXRsZT5BUEkmIzMyNTkzOyYjMjA4NTE7PC90aXRsZT48cmVjdCBmaWxsPSIjRkZGRkZGIiBoZWlnaHQ9IjI3LjkxNDEiIHN0eWxlPSJzdHJva2U6IzE4MTgxODtzdHJva2Utd2lkdGg6MTsiIHdpZHRoPSIxMCIgeD0iMjY0LjUiIHk9IjgwMy41MjM0Ii8+PC9nPjxnPjx0aXRsZT5BUEkmIzMyNTkzOyYjMjA4NTE7PC90aXRsZT48cmVjdCBmaWxsPSIjRkZGRkZGIiBoZWlnaHQ9IjI3LjkxNDEiIHN0eWxlPSJzdHJva2U6IzE4MTgxODtzdHJva2Utd2lkdGg6MTsiIHdpZHRoPSIxMCIgeD0iMjY0LjUiIHk9Ijk3My4wMDc4Ii8+PC9nPjxnPjx0aXRsZT5BUEkmIzMyNTkzOyYjMjA4NTE7PC90aXRsZT48cmVjdCBmaWxsPSIjRkZGRkZGIiBoZWlnaHQ9IjI3LjkxNDEiIHN0eWxlPSJzdHJva2U6IzE4MTgxODtzdHJva2Utd2lkdGg6MTsiIHdpZHRoPSIxMCIgeD0iMjY0LjUiIHk9IjExNTYuNDA2MyIvPjwvZz48Zz48dGl0bGU+QVBJJiMzMjU5MzsmIzIwODUxOzwvdGl0bGU+PHJlY3QgZmlsbD0iI0ZGRkZGRiIgaGVpZ2h0PSIyNy45MTQxIiBzdHlsZT0ic3Ryb2tlOiMxODE4MTg7c3Ryb2tlLXdpZHRoOjE7IiB3aWR0aD0iMTAiIHg9IjI2NC41IiB5PSIxMzI1Ljg5MDYiLz48L2c+PGc+PHRpdGxlPkFQSSYjMzI1OTM7JiMyMDg1MTs8L3RpdGxlPjxyZWN0IGZpbGw9IiNGRkZGRkYiIGhlaWdodD0iMjcuOTE0MSIgc3R5bGU9InN0cm9rZTojMTgxODE4O3N0cm9rZS13aWR0aDoxOyIgd2lkdGg9IjEwIiB4PSIyNjQuNSIgeT0iMTQ3Mi40NjA5Ii8+PC9nPjxnPjx0aXRsZT5BUEkmIzMyNTkzOyYjMjA4NTE7PC90aXRsZT48cmVjdCBmaWxsPSIjRkZGRkZGIiBoZWlnaHQ9IjI3LjkxNDEiIHN0eWxlPSJzdHJva2U6IzE4MTgxODtzdHJva2Utd2lkdGg6MTsiIHdpZHRoPSIxMCIgeD0iMjY0LjUiIHk9IjE1NDkuMDYyNSIvPjwvZz48Zz48dGl0bGU+QXV0aEZpbHRlcjwvdGl0bGU+PHJlY3QgZmlsbD0iI0ZGRkZGRiIgaGVpZ2h0PSIzNC45MTQxIiBzdHlsZT0ic3Ryb2tlOiMxODE4MTg7c3Ryb2tlLXdpZHRoOjE7IiB3aWR0aD0iMTAiIHg9IjM1MC41IiB5PSIxMzcuODEyNSIvPjwvZz48Zz48dGl0bGU+QXV0aEZpbHRlcjwvdGl0bGU+PHJlY3QgZmlsbD0iI0ZGRkZGRiIgaGVpZ2h0PSI0OC42ODc1IiBzdHlsZT0ic3Ryb2tlOiMxODE4MTg7c3Ryb2tlLXdpZHRoOjE7IiB3aWR0aD0iMTAiIHg9IjM1MC41IiB5PSIxNTAwLjM3NSIvPjwvZz48Zz48dGl0bGU+UXVlc3Rpb248L3RpdGxlPjxyZWN0IGZpbGw9IiNGRkZGRkYiIGhlaWdodD0iMTE2Ljc0MjIiIHN0eWxlPSJzdHJva2U6IzE4MTgxODtzdHJva2Utd2lkdGg6MTsiIHdpZHRoPSIxMCIgeD0iNDQ0LjUiIHk9IjIxNi41NTQ3Ii8+PC9nPjxnPjx0aXRsZT5RdWVzdGlvbjwvdGl0bGU+PHJlY3QgZmlsbD0iI0ZGRkZGRiIgaGVpZ2h0PSIxOTcuMzEyNSIgc3R5bGU9InN0cm9rZTojMTgxODE4O3N0cm9rZS13aWR0aDoxOyIgd2lkdGg9IjEwIiB4PSI0NDQuNSIgeT0iMzYxLjIxMDkiLz48L2c+PGc+PHRpdGxlPlF1ZXN0aW9uPC90aXRsZT48cmVjdCBmaWxsPSIjRkZGRkZGIiBoZWlnaHQ9IjU3Ljc0MjIiIHN0eWxlPSJzdHJva2U6IzE4MTgxODtzdHJva2Utd2lkdGg6MTsiIHdpZHRoPSIxMCIgeD0iNDQ0LjUiIHk9IjYyOC4xMjUiLz48L2c+PGc+PHRpdGxlPlF1ZXN0aW9uPC90aXRsZT48cmVjdCBmaWxsPSIjRkZGRkZGIiBoZWlnaHQ9IjI3LjkxNDEiIHN0eWxlPSJzdHJva2U6IzE4MTgxODtzdHJva2Utd2lkdGg6MTsiIHdpZHRoPSIxMCIgeD0iNDQ0LjUiIHk9Ijc3NS42MDk0Ii8+PC9nPjxnPjx0aXRsZT5RdWVzdGlvbjwvdGl0bGU+PHJlY3QgZmlsbD0iI0ZGRkZGRiIgaGVpZ2h0PSIyNy45MTQxIiBzdHlsZT0ic3Ryb2tlOiMxODE4MTg7c3Ryb2tlLXdpZHRoOjE7IiB3aWR0aD0iMTAiIHg9IjQ0NC41IiB5PSI5NDUuMDkzOCIvPjwvZz48Zz48dGl0bGU+UXVlc3Rpb248L3RpdGxlPjxyZWN0IGZpbGw9IiNGRkZGRkYiIGhlaWdodD0iMjcuOTE0MSIgc3R5bGU9InN0cm9rZTojMTgxODE4O3N0cm9rZS13aWR0aDoxOyIgd2lkdGg9IjEwIiB4PSI0NDQuNSIgeT0iMTEyOC40OTIyIi8+PC9nPjxnPjx0aXRsZT5RdWVzdGlvbjwvdGl0bGU+PHJlY3QgZmlsbD0iI0ZGRkZGRiIgaGVpZ2h0PSIyNy45MTQxIiBzdHlsZT0ic3Ryb2tlOiMxODE4MTg7c3Ryb2tlLXdpZHRoOjE7IiB3aWR0aD0iMTAiIHg9IjQ0NC41IiB5PSIxMjk3Ljk3NjYiLz48L2c+PGc+PHRpdGxlPlF1ZXN0aW9uPC90aXRsZT48cmVjdCBmaWxsPSIjRkZGRkZGIiBoZWlnaHQ9IjI3LjkxNDEiIHN0eWxlPSJzdHJva2U6IzE4MTgxODtzdHJva2Utd2lkdGg6MTsiIHdpZHRoPSIxMCIgeD0iNDQ0LjUiIHk9IjE0NDQuNTQ2OSIvPjwvZz48Zz48dGl0bGU+dXNlcjwvdGl0bGU+PHJlY3QgZmlsbD0iI0ZGRkZGRiIgaGVpZ2h0PSIxMiIgc3R5bGU9InN0cm9rZTojMTgxODE4O3N0cm9rZS13aWR0aDoxOyIgd2lkdGg9IjEwIiB4PSI2MDguNSIgeT0iNDI1Ljk1MzEiLz48L2c+PGc+PHRpdGxlPlJlZGlzc29uPC90aXRsZT48cmVjdCBmaWxsPSIjRkZGRkZGIiBoZWlnaHQ9IjM0LjkxNDEiIHN0eWxlPSJzdHJva2U6IzE4MTgxODtzdHJva2Utd2lkdGg6MTsiIHdpZHRoPSIxMCIgeD0iNjk5IiB5PSI0OTUuNjk1MyIvPjwvZz48Zz48dGl0bGU+UmVkaXNzb248L3RpdGxlPjxyZWN0IGZpbGw9IiNGRkZGRkYiIGhlaWdodD0iNDEuNjg3NSIgc3R5bGU9InN0cm9rZTojMTgxODE4O3N0cm9rZS13aWR0aDoxOyIgd2lkdGg9IjEwIiB4PSI2OTkiIHk9IjU4Ni40Mzc1Ii8+PC9nPjxnPjx0aXRsZT5RdWVzdGlvblN1Ym1pdDwvdGl0bGU+PHJlY3QgZmlsbD0iI0ZGRkZGRiIgaGVpZ2h0PSI4OS43NDIyIiBzdHlsZT0ic3Ryb2tlOiMxODE4MTg7c3Ryb2tlLXdpZHRoOjE7IiB3aWR0aD0iMTAiIHg9IjgwMCIgeT0iNjg1Ljg2NzIiLz48L2c+PGc+PHRpdGxlPlF1ZXN0aW9uU3VibWl0PC90aXRsZT48cmVjdCBmaWxsPSIjRkZGRkZGIiBoZWlnaHQ9IjExMy42NTYzIiBzdHlsZT0ic3Ryb2tlOiMxODE4MTg7c3Ryb2tlLXdpZHRoOjE7IiB3aWR0aD0iMTAiIHg9IjgwMCIgeT0iODMxLjQzNzUiLz48L2c+PGc+PHRpdGxlPlF1ZXN0aW9uU3VibWl0PC90aXRsZT48cmVjdCBmaWxsPSIjRkZGRkZGIiBoZWlnaHQ9IjEyNy41NzAzIiBzdHlsZT0ic3Ryb2tlOiMxODE4MTg7c3Ryb2tlLXdpZHRoOjE7IiB3aWR0aD0iMTAiIHg9IjgwMCIgeT0iMTAwMC45MjE5Ii8+PC9nPjxnPjx0aXRsZT5RdWVzdGlvblN1Ym1pdDwvdGl0bGU+PHJlY3QgZmlsbD0iI0ZGRkZGRiIgaGVpZ2h0PSIxMTMuNjU2MyIgc3R5bGU9InN0cm9rZTojMTgxODE4O3N0cm9rZS13aWR0aDoxOyIgd2lkdGg9IjEwIiB4PSI4MDAiIHk9IjExODQuMzIwMyIvPjwvZz48Zz48dGl0bGU+UXVlc3Rpb25TdWJtaXQ8L3RpdGxlPjxyZWN0IGZpbGw9IiNGRkZGRkYiIGhlaWdodD0iOTAuNzQyMiIgc3R5bGU9InN0cm9rZTojMTgxODE4O3N0cm9rZS13aWR0aDoxOyIgd2lkdGg9IjEwIiB4PSI4MDAiIHk9IjEzNTMuODA0NyIvPjwvZz48Zz48dGl0bGU+RGF0YUJhc2U8L3RpdGxlPjxyZWN0IGZpbGw9IiNGRkZGRkYiIGhlaWdodD0iMjcuOTE0MSIgc3R5bGU9InN0cm9rZTojMTgxODE4O3N0cm9rZS13aWR0aDoxOyIgd2lkdGg9IjEwIiB4PSI5MzMiIHk9Ijg4Mi4yNjU2Ii8+PC9nPjxnPjx0aXRsZT5EYXRhQmFzZTwvdGl0bGU+PHJlY3QgZmlsbD0iI0ZGRkZGRiIgaGVpZ2h0PSIyNy45MTQxIiBzdHlsZT0ic3Ryb2tlOiMxODE4MTg7c3Ryb2tlLXdpZHRoOjE7IiB3aWR0aD0iMTAiIHg9IjkzMyIgeT0iMTA2NS42NjQxIi8+PC9nPjxnPjx0aXRsZT5EYXRhQmFzZTwvdGl0bGU+PHJlY3QgZmlsbD0iI0ZGRkZGRiIgaGVpZ2h0PSIyNy45MTQxIiBzdHlsZT0ic3Ryb2tlOiMxODE4MTg7c3Ryb2tlLXdpZHRoOjE7IiB3aWR0aD0iMTAiIHg9IjkzMyIgeT0iMTIzNS4xNDg0Ii8+PC9nPjxnPjx0aXRsZT5SYWJiaXRNUTwvdGl0bGU+PHJlY3QgZmlsbD0iI0ZGRkZGRiIgaGVpZ2h0PSIyNy45MTQxIiBzdHlsZT0ic3Ryb2tlOiMxODE4MTg7c3Ryb2tlLXdpZHRoOjE7IiB3aWR0aD0iMTAiIHg9IjEwMTYuNSIgeT0iMTQwNC42MzI4Ii8+PC9nPjxnIGNsYXNzPSJtZXNzYWdlIiBkYXRhLXBhcnRpY2lwYW50LTE9IiYjMjk5OTI7JiMyNTE0MzsiIGRhdGEtcGFydGljaXBhbnQtMj0iR2F0ZXdheSI+PHBvbHlnb24gZmlsbD0iIzE4MTgxOCIgcG9pbnRzPSIyNTIuNSwxMDUuODk4NCwyNjIuNSwxMDkuODk4NCwyNTIuNSwxMTMuODk4NCwyNTYuNSwxMDkuODk4NCIgc3R5bGU9InN0cm9rZTojMTgxODE4O3N0cm9rZS13aWR0aDoxOyIvPjxsaW5lIHN0eWxlPSJzdHJva2U6IzE4MTgxODtzdHJva2Utd2lkdGg6MTsiIHgxPSI2MiIgeDI9IjI1OC41IiB5MT0iMTA5Ljg5ODQiIHkyPSIxMDkuODk4NCIvPjx0ZXh0IGZpbGw9IiMwMDAwMDAiIGZvbnQtZmFtaWx5PSJzYW5zLXNlcmlmIiBmb250LXNpemU9IjEzIiBsZW5ndGhBZGp1c3Q9InNwYWNpbmciIHRleHRMZW5ndGg9IjE4OC41IiB4PSI2OSIgeT0iMTA2LjI3MzQiPkhUVFAgUE9TVCAvcXVlc3Rpb25fc3VibWl0L2RvPC90ZXh0PjwvZz48ZyBjbGFzcz0ibWVzc2FnZSIgZGF0YS1wYXJ0aWNpcGFudC0xPSJHYXRld2F5IiBkYXRhLXBhcnRpY2lwYW50LTI9IkF1dGhGaWx0ZXIiPjxwb2x5Z29uIGZpbGw9IiMxODE4MTgiIHBvaW50cz0iMzM4LjUsMTMzLjgxMjUsMzQ4LjUsMTM3LjgxMjUsMzM4LjUsMTQxLjgxMjUsMzQyLjUsMTM3LjgxMjUiIHN0eWxlPSJzdHJva2U6IzE4MTgxODtzdHJva2Utd2lkdGg6MTsiLz48bGluZSBzdHlsZT0ic3Ryb2tlOiMxODE4MTg7c3Ryb2tlLXdpZHRoOjE7IiB4MT0iMjc0LjUiIHgyPSIzNDQuNSIgeTE9IjEzNy44MTI1IiB5Mj0iMTM3LjgxMjUiLz48dGV4dCBmaWxsPSIjMDAwMDAwIiBmb250LWZhbWlseT0ic2Fucy1zZXJpZiIgZm9udC1zaXplPSIxMyIgbGVuZ3RoQWRqdXN0PSJzcGFjaW5nIiB0ZXh0TGVuZ3RoPSI1MiIgeD0iMjgxLjUiIHk9IjEzNC4xODc1Ij4mIzM3NDkyOyYjMjY0MzU7JiMzNjgwNzsmIzI4Mzg4OzwvdGV4dD48L2c+PHBhdGggZD0iTTEwLDE1Mi44MTI1IEw3NC41LDE1Mi44MTI1IEw3NC41LDE1OC43MjY2IEw2NC41LDE2OC43MjY2IEwxMCwxNjguNzI2NiBMMTAsMTUyLjgxMjUiIGZpbGw9IiNFRUVFRUUiIHN0eWxlPSJzdHJva2U6IzAwMDAwMDtzdHJva2Utd2lkdGg6MS41OyIvPjxyZWN0IGZpbGw9Im5vbmUiIGhlaWdodD0iMTQ0OC4wNzgxIiBzdHlsZT0ic3Ryb2tlOiMwMDAwMDA7c3Ryb2tlLXdpZHRoOjEuNTsiIHdpZHRoPSIxMDY2LjUiIHg9IjEwIiB5PSIxNTIuODEyNSIvPjx0ZXh0IGZpbGw9IiMwMDAwMDAiIGZvbnQtZmFtaWx5PSJzYW5zLXNlcmlmIiBmb250LXNpemU9IjEzIiBmb250LXdlaWdodD0iYm9sZCIgbGVuZ3RoQWRqdXN0PSJzcGFjaW5nIiB0ZXh0TGVuZ3RoPSIxOS41IiB4PSIyNSIgeT0iMTY2LjEwMTYiPmFsdDwvdGV4dD48dGV4dCBmaWxsPSIjMDAwMDAwIiBmb250LWZhbWlseT0ic2Fucy1zZXJpZiIgZm9udC1zaXplPSIxMSIgZm9udC13ZWlnaHQ9ImJvbGQiIGxlbmd0aEFkanVzdD0ic3BhY2luZyIgdGV4dExlbmd0aD0iNTUiIHg9Ijg5LjUiIHk9IjE2NS4yMTA5Ij5bJiMzNzQ5MjsmIzI2NDM1OyYjMjUxMDQ7JiMyMTE1MTtdPC90ZXh0PjxnIGNsYXNzPSJtZXNzYWdlIiBkYXRhLXBhcnRpY2lwYW50LTE9IkF1dGhGaWx0ZXIiIGRhdGEtcGFydGljaXBhbnQtMj0iR2F0ZXdheSI+PHBvbHlnb24gZmlsbD0iIzE4MTgxOCIgcG9pbnRzPSIyODUuNSwxNjguNzI2NiwyNzUuNSwxNzIuNzI2NiwyODUuNSwxNzYuNzI2NiwyODEuNSwxNzIuNzI2NiIgc3R5bGU9InN0cm9rZTojMTgxODE4O3N0cm9rZS13aWR0aDoxOyIvPjxsaW5lIHN0eWxlPSJzdHJva2U6IzE4MTgxODtzdHJva2Utd2lkdGg6MTtzdHJva2UtZGFzaGFycmF5OjIuMCwyLjA7IiB4MT0iMjc5LjUiIHgyPSIzNTQuNSIgeTE9IjE3Mi43MjY2IiB5Mj0iMTcyLjcyNjYiLz48dGV4dCBmaWxsPSIjMDAwMDAwIiBmb250LWZhbWlseT0ic2Fucy1zZXJpZiIgZm9udC1zaXplPSIxMyIgbGVuZ3RoQWRqdXN0PSJzcGFjaW5nIiB0ZXh0TGVuZ3RoPSI1MiIgeD0iMjkxLjUiIHk9IjE4Ni4wMTU2Ij4mIzM3NDkyOyYjMjY0MzU7JiMzNjg5MDsmIzM2ODA3OzwvdGV4dD48L2c+PGcgY2xhc3M9Im1lc3NhZ2UiIGRhdGEtcGFydGljaXBhbnQtMT0iR2F0ZXdheSIgZGF0YS1wYXJ0aWNpcGFudC0yPSJDb250cm9sbGVyIj48cG9seWdvbiBmaWxsPSIjMTgxODE4IiBwb2ludHM9IjQzMi41LDIxMi41NTQ3LDQ0Mi41LDIxNi41NTQ3LDQzMi41LDIyMC41NTQ3LDQzNi41LDIxNi41NTQ3IiBzdHlsZT0ic3Ryb2tlOiMxODE4MTg7c3Ryb2tlLXdpZHRoOjE7Ii8+PGxpbmUgc3R5bGU9InN0cm9rZTojMTgxODE4O3N0cm9rZS13aWR0aDoxOyIgeDE9IjI3NC41IiB4Mj0iNDM4LjUiIHkxPSIyMTYuNTU0NyIgeTI9IjIxNi41NTQ3Ii8+PHRleHQgZmlsbD0iIzAwMDAwMCIgZm9udC1mYW1pbHk9InNhbnMtc2VyaWYiIGZvbnQtc2l6ZT0iMTMiIGxlbmd0aEFkanVzdD0ic3BhY2luZyIgdGV4dExlbmd0aD0iMTQzIiB4PSIyODEuNSIgeT0iMjEyLjkyOTciPiYjMzU4NDM7JiMyOTk5MjsgI2RvUXVlc3Rpb25TdWJtaXQ8L3RleHQ+PC9nPjxnIGNsYXNzPSJtZXNzYWdlIiBkYXRhLXBhcnRpY2lwYW50LTE9IkNvbnRyb2xsZXIiIGRhdGEtcGFydGljaXBhbnQtMj0iQ29udHJvbGxlciI+PGxpbmUgc3R5bGU9InN0cm9rZTojMTgxODE4O3N0cm9rZS13aWR0aDoxOyIgeDE9IjQ1NC41IiB4Mj0iNDk2LjUiIHkxPSIyNDQuNDY4OCIgeTI9IjI0NC40Njg4Ii8+PGxpbmUgc3R5bGU9InN0cm9rZTojMTgxODE4O3N0cm9rZS13aWR0aDoxOyIgeDE9IjQ5Ni41IiB4Mj0iNDk2LjUiIHkxPSIyNDQuNDY4OCIgeTI9IjI1Ny40Njg4Ii8+PGxpbmUgc3R5bGU9InN0cm9rZTojMTgxODE4O3N0cm9rZS13aWR0aDoxOyIgeDE9IjQ1NS41IiB4Mj0iNDk2LjUiIHkxPSIyNTcuNDY4OCIgeTI9IjI1Ny40Njg4Ii8+PHBvbHlnb24gZmlsbD0iIzE4MTgxOCIgcG9pbnRzPSI0NjUuNSwyNTMuNDY4OCw0NTUuNSwyNTcuNDY4OCw0NjUuNSwyNjEuNDY4OCw0NjEuNSwyNTcuNDY4OCIgc3R5bGU9InN0cm9rZTojMTgxODE4O3N0cm9rZS13aWR0aDoxOyIvPjx0ZXh0IGZpbGw9IiMwMDAwMDAiIGZvbnQtZmFtaWx5PSJzYW5zLXNlcmlmIiBmb250LXNpemU9IjEzIiBsZW5ndGhBZGp1c3Q9InNwYWNpbmciIHRleHRMZW5ndGg9IjExNyIgeD0iNDYxLjUiIHk9IjI0MC44NDM4Ij4mIzM1Mjk5OyYjMjY1MTI7JiMzNTgzMTsmIzI3NzE0OyYjMjE0NDI7JiMyNTk2ODsmIzI0MTgyOyYjMzI0NTI7JiMzNTAxMzs8L3RleHQ+PC9nPjxnIGNsYXNzPSJtZXNzYWdlIiBkYXRhLXBhcnRpY2lwYW50LTE9IkNvbnRyb2xsZXIiIGRhdGEtcGFydGljaXBhbnQtMj0iQ29udHJvbGxlciI+PGxpbmUgc3R5bGU9InN0cm9rZTojMTgxODE4O3N0cm9rZS13aWR0aDoxOyIgeDE9IjQ1NC41IiB4Mj0iNDk2LjUiIHkxPSIyODUuMzgyOCIgeTI9IjI4NS4zODI4Ii8+PGxpbmUgc3R5bGU9InN0cm9rZTojMTgxODE4O3N0cm9rZS13aWR0aDoxOyIgeDE9IjQ5Ni41IiB4Mj0iNDk2LjUiIHkxPSIyODUuMzgyOCIgeTI9IjI5OC4zODI4Ii8+PGxpbmUgc3R5bGU9InN0cm9rZTojMTgxODE4O3N0cm9rZS13aWR0aDoxOyIgeDE9IjQ1NS41IiB4Mj0iNDk2LjUiIHkxPSIyOTguMzgyOCIgeTI9IjI5OC4zODI4Ii8+PHBvbHlnb24gZmlsbD0iIzE4MTgxOCIgcG9pbnRzPSI0NjUuNSwyOTQuMzgyOCw0NTUuNSwyOTguMzgyOCw0NjUuNSwzMDIuMzgyOCw0NjEuNSwyOTguMzgyOCIgc3R5bGU9InN0cm9rZTojMTgxODE4O3N0cm9rZS13aWR0aDoxOyIvPjx0ZXh0IGZpbGw9IiMwMDAwMDAiIGZvbnQtZmFtaWx5PSJzYW5zLXNlcmlmIiBmb250LXNpemU9IjEzIiBsZW5ndGhBZGp1c3Q9InNwYWNpbmciIHRleHRMZW5ndGg9IjEzMCIgeD0iNDYxLjUiIHk9IjI4MS43NTc4Ij4mIzI2NjU3OyYjMzk1NjQ7JiMyMTQ0MjsmIzI1OTY4OyYjNjUyODg7JiMzMTM1NDsmIzMwMzMzOyYjMjY2NTc7JiMzOTU2NDsmIzY1Mjg5OzwvdGV4dD48L2c+PHBhdGggZD0iTTMwLDMxMy4zODI4IEw5NC41LDMxMy4zODI4IEw5NC41LDMxOS4yOTY5IEw4NC41LDMyOS4yOTY5IEwzMCwzMjkuMjk2OSBMMzAsMzEzLjM4MjgiIGZpbGw9IiNFRUVFRUUiIHN0eWxlPSJzdHJva2U6IzAwMDAwMDtzdHJva2Utd2lkdGg6MS41OyIvPjxyZWN0IGZpbGw9Im5vbmUiIGhlaWdodD0iNzEuNzQyMiIgc3R5bGU9InN0cm9rZTojMDAwMDAwO3N0cm9rZS13aWR0aDoxLjU7IiB3aWR0aD0iNDcxLjUiIHg9IjMwIiB5PSIzMTMuMzgyOCIvPjx0ZXh0IGZpbGw9IiMwMDAwMDAiIGZvbnQtZmFtaWx5PSJzYW5zLXNlcmlmIiBmb250LXNpemU9IjEzIiBmb250LXdlaWdodD0iYm9sZCIgbGVuZ3RoQWRqdXN0PSJzcGFjaW5nIiB0ZXh0TGVuZ3RoPSIxOS41IiB4PSI0NSIgeT0iMzI2LjY3MTkiPmFsdDwvdGV4dD48dGV4dCBmaWxsPSIjMDAwMDAwIiBmb250LWZhbWlseT0ic2Fucy1zZXJpZiIgZm9udC1zaXplPSIxMSIgZm9udC13ZWlnaHQ9ImJvbGQiIGxlbmd0aEFkanVzdD0ic3BhY2luZyIgdGV4dExlbmd0aD0iNTUiIHg9IjEwOS41IiB5PSIzMjUuNzgxMyI+WyYjMjY2NTc7JiMzOTU2NDsmIzIyODMzOyYjMzYxMzM7XTwvdGV4dD48ZyBjbGFzcz0ibWVzc2FnZSIgZGF0YS1wYXJ0aWNpcGFudC0xPSJDb250cm9sbGVyIiBkYXRhLXBhcnRpY2lwYW50LTI9IkdhdGV3YXkiPjxwb2x5Z29uIGZpbGw9IiMxODE4MTgiIHBvaW50cz0iMjg1LjUsMzI5LjI5NjksMjc1LjUsMzMzLjI5NjksMjg1LjUsMzM3LjI5NjksMjgxLjUsMzMzLjI5NjkiIHN0eWxlPSJzdHJva2U6IzE4MTgxODtzdHJva2Utd2lkdGg6MTsiLz48bGluZSBzdHlsZT0ic3Ryb2tlOiMxODE4MTg7c3Ryb2tlLXdpZHRoOjE7c3Ryb2tlLWRhc2hhcnJheToyLjAsMi4wOyIgeDE9IjI3OS41IiB4Mj0iNDQ4LjUiIHkxPSIzMzMuMjk2OSIgeTI9IjMzMy4yOTY5Ii8+PHRleHQgZmlsbD0iIzAwMDAwMCIgZm9udC1mYW1pbHk9InNhbnMtc2VyaWYiIGZvbnQtc2l6ZT0iMTMiIGxlbmd0aEFkanVzdD0ic3BhY2luZyIgdGV4dExlbmd0aD0iNTIiIHg9IjI5MS41IiB5PSIzNDYuNTg1OSI+JiMyNTI0MzsmIzIwOTg2OyYjMjQzMjI7JiMyNDEyMDs8L3RleHQ+PC9nPjxnIGNsYXNzPSJtZXNzYWdlIiBkYXRhLXBhcnRpY2lwYW50LTE9IkdhdGV3YXkiIGRhdGEtcGFydGljaXBhbnQtMj0iJiMyOTk5MjsmIzI1MTQzOyI+PHBvbHlnb24gZmlsbD0iIzE4MTgxOCIgcG9pbnRzPSI3MywzNTcuMjEwOSw2MywzNjEuMjEwOSw3MywzNjUuMjEwOSw2OSwzNjEuMjEwOSIgc3R5bGU9InN0cm9rZTojMTgxODE4O3N0cm9rZS13aWR0aDoxOyIvPjxsaW5lIHN0eWxlPSJzdHJva2U6IzE4MTgxODtzdHJva2Utd2lkdGg6MTtzdHJva2UtZGFzaGFycmF5OjIuMCwyLjA7IiB4MT0iNjciIHgyPSIyNjguNSIgeTE9IjM2MS4yMTA5IiB5Mj0iMzYxLjIxMDkiLz48dGV4dCBmaWxsPSIjMDAwMDAwIiBmb250LWZhbWlseT0ic2Fucy1zZXJpZiIgZm9udC1zaXplPSIxMyIgbGVuZ3RoQWRqdXN0PSJzcGFjaW5nIiB0ZXh0TGVuZ3RoPSI3OCIgeD0iNzkiIHk9IjM3NC41Ij4mIzM2ODIwOyYjMjIyMzg7JiMyNDMyMjsmIzI0MTIwOyYjMjE0MDc7JiMyMjI0MDs8L3RleHQ+PC9nPjxnIGNsYXNzPSJtZXNzYWdlIiBkYXRhLXBhcnRpY2lwYW50LTE9IkNvbnRyb2xsZXIiIGRhdGEtcGFydGljaXBhbnQtMj0iRmVpZ25DbGllbnQiPjxwb2x5Z29uIGZpbGw9IiMxODE4MTgiIHBvaW50cz0iNTk2LjUsNDIxLjk1MzEsNjA2LjUsNDI1Ljk1MzEsNTk2LjUsNDI5Ljk1MzEsNjAwLjUsNDI1Ljk1MzEiIHN0eWxlPSJzdHJva2U6IzE4MTgxODtzdHJva2Utd2lkdGg6MTsiLz48bGluZSBzdHlsZT0ic3Ryb2tlOiMxODE4MTg7c3Ryb2tlLXdpZHRoOjE7IiB4MT0iNDU0LjUiIHgyPSI2MDIuNSIgeTE9IjQyNS45NTMxIiB5Mj0iNDI1Ljk1MzEiLz48dGV4dCBmaWxsPSIjMDAwMDAwIiBmb250LWZhbWlseT0ic2Fucy1zZXJpZiIgZm9udC1zaXplPSIxMyIgbGVuZ3RoQWRqdXN0PSJzcGFjaW5nIiB0ZXh0TGVuZ3RoPSIxMDQiIHg9IjQ2MS41IiB5PSI0MDguNDE0MSI+JiMzMzcxOTsmIzIxNDYyOyYjMzAzMzE7JiMyNDQwNTsmIzI5OTkyOyYjMjUxNDM7JiMyMDQ0OTsmIzI0Njg3OzwvdGV4dD48dGV4dCBmaWxsPSIjMDAwMDAwIiBmb250LWZhbWlseT0ic2Fucy1zZXJpZiIgZm9udC1zaXplPSIxMyIgbGVuZ3RoQWRqdXN0PSJzcGFjaW5nIiB0ZXh0TGVuZ3RoPSI5Ny41IiB4PSI0NjgiIHk9IjQyMi4zMjgxIj4jZ2V0TG9naW5Vc2VyKCk8L3RleHQ+PC9nPjxnIGNsYXNzPSJtZXNzYWdlIiBkYXRhLXBhcnRpY2lwYW50LTE9IkZlaWduQ2xpZW50IiBkYXRhLXBhcnRpY2lwYW50LTI9IkNvbnRyb2xsZXIiPjxwb2x5Z29uIGZpbGw9IiMxODE4MTgiIHBvaW50cz0iNDY1LjUsNDMzLjk1MzEsNDU1LjUsNDM3Ljk1MzEsNDY1LjUsNDQxLjk1MzEsNDYxLjUsNDM3Ljk1MzEiIHN0eWxlPSJzdHJva2U6IzE4MTgxODtzdHJva2Utd2lkdGg6MTsiLz48bGluZSBzdHlsZT0ic3Ryb2tlOiMxODE4MTg7c3Ryb2tlLXdpZHRoOjE7c3Ryb2tlLWRhc2hhcnJheToyLjAsMi4wOyIgeDE9IjQ1OS41IiB4Mj0iNjEyLjUiIHkxPSI0MzcuOTUzMSIgeTI9IjQzNy45NTMxIi8+PHRleHQgZmlsbD0iIzAwMDAwMCIgZm9udC1mYW1pbHk9InNhbnMtc2VyaWYiIGZvbnQtc2l6ZT0iMTMiIGxlbmd0aEFkanVzdD0ic3BhY2luZyIgdGV4dExlbmd0aD0iNzgiIHg9IjQ3MS41IiB5PSI0NTEuMjQyMiI+JiMzNjgyMDsmIzIyMjM4OyYjMjk5OTI7JiMyNTE0MzsmIzIwNDQ5OyYjMjQ2ODc7PC90ZXh0PjwvZz48ZyBjbGFzcz0ibWVzc2FnZSIgZGF0YS1wYXJ0aWNpcGFudC0xPSJDb250cm9sbGVyIiBkYXRhLXBhcnRpY2lwYW50LTI9IkxpbWl0ZXIiPjxwb2x5Z29uIGZpbGw9IiMxODE4MTgiIHBvaW50cz0iNjg3LDQ5MS42OTUzLDY5Nyw0OTUuNjk1Myw2ODcsNDk5LjY5NTMsNjkxLDQ5NS42OTUzIiBzdHlsZT0ic3Ryb2tlOiMxODE4MTg7c3Ryb2tlLXdpZHRoOjE7Ii8+PGxpbmUgc3R5bGU9InN0cm9rZTojMTgxODE4O3N0cm9rZS13aWR0aDoxOyIgeDE9IjQ1NC41IiB4Mj0iNjkzIiB5MT0iNDk1LjY5NTMiIHkyPSI0OTUuNjk1MyIvPjx0ZXh0IGZpbGw9IiMwMDAwMDAiIGZvbnQtZmFtaWx5PSJzYW5zLXNlcmlmIiBmb250LXNpemU9IjEzIiBsZW5ndGhBZGp1c3Q9InNwYWNpbmciIHRleHRMZW5ndGg9Ijc4IiB4PSI0NjEuNSIgeT0iNDc4LjE1NjMiPiYjMzY4Mjc7JiMzNDg5MjsmIzM4NDgwOyYjMjc5Njk7JiMyNTgwNTsmIzIwMzE2OzwvdGV4dD48dGV4dCBmaWxsPSIjMDAwMDAwIiBmb250LWZhbWlseT0ic2Fucy1zZXJpZiIgZm9udC1zaXplPSIxMyIgbGVuZ3RoQWRqdXN0PSJzcGFjaW5nIiB0ZXh0TGVuZ3RoPSI5MSIgeD0iNDY4IiB5PSI0OTIuMDcwMyI+I2RvUmF0ZUxpbWl0KCk8L3RleHQ+PC9nPjxwYXRoIGQ9Ik0yMCw1MTAuNjk1MyBMODQuNSw1MTAuNjk1MyBMODQuNSw1MTYuNjA5NCBMNzQuNSw1MjYuNjA5NCBMMjAsNTI2LjYwOTQgTDIwLDUxMC42OTUzIiBmaWxsPSIjRUVFRUVFIiBzdHlsZT0ic3Ryb2tlOiMwMDAwMDA7c3Ryb2tlLXdpZHRoOjEuNTsiLz48cmVjdCBmaWxsPSJub25lIiBoZWlnaHQ9IjEwMTMuNTkzOCIgc3R5bGU9InN0cm9rZTojMDAwMDAwO3N0cm9rZS13aWR0aDoxLjU7IiB3aWR0aD0iMTA0Ni41IiB4PSIyMCIgeT0iNTEwLjY5NTMiLz48dGV4dCBmaWxsPSIjMDAwMDAwIiBmb250LWZhbWlseT0ic2Fucy1zZXJpZiIgZm9udC1zaXplPSIxMyIgZm9udC13ZWlnaHQ9ImJvbGQiIGxlbmd0aEFkanVzdD0ic3BhY2luZyIgdGV4dExlbmd0aD0iMTkuNSIgeD0iMzUiIHk9IjUyMy45ODQ0Ij5hbHQ8L3RleHQ+PHRleHQgZmlsbD0iIzAwMDAwMCIgZm9udC1mYW1pbHk9InNhbnMtc2VyaWYiIGZvbnQtc2l6ZT0iMTEiIGZvbnQtd2VpZ2h0PSJib2xkIiBsZW5ndGhBZGp1c3Q9InNwYWNpbmciIHRleHRMZW5ndGg9IjY2IiB4PSI5OS41IiB5PSI1MjMuMDkzOCI+WyYjMjY0MTA7JiMzNjg5MDsmIzM2ODA3OyYjMzg0ODA7JiMyNzk2OTtdPC90ZXh0PjxnIGNsYXNzPSJtZXNzYWdlIiBkYXRhLXBhcnRpY2lwYW50LTE9IkxpbWl0ZXIiIGRhdGEtcGFydGljaXBhbnQtMj0iQ29udHJvbGxlciI+PHBvbHlnb24gZmlsbD0iIzE4MTgxOCIgcG9pbnRzPSI0NjUuNSw1MjYuNjA5NCw0NTUuNSw1MzAuNjA5NCw0NjUuNSw1MzQuNjA5NCw0NjEuNSw1MzAuNjA5NCIgc3R5bGU9InN0cm9rZTojMTgxODE4O3N0cm9rZS13aWR0aDoxOyIvPjxsaW5lIHN0eWxlPSJzdHJva2U6IzE4MTgxODtzdHJva2Utd2lkdGg6MTtzdHJva2UtZGFzaGFycmF5OjIuMCwyLjA7IiB4MT0iNDU5LjUiIHgyPSI3MDMiIHkxPSI1MzAuNjA5NCIgeTI9IjUzMC42MDk0Ii8+PHRleHQgZmlsbD0iIzAwMDAwMCIgZm9udC1mYW1pbHk9InNhbnMtc2VyaWYiIGZvbnQtc2l6ZT0iMTMiIGxlbmd0aEFkanVzdD0ic3BhY2luZyIgdGV4dExlbmd0aD0iNzgiIHg9IjQ3MS41IiB5PSI1NDMuODk4NCI+JiMzNjgyMDsmIzIyMjM4OyYjMzg0ODA7JiMyNzk2OTsmIzMyNDY3OyYjMjY1MjQ7PC90ZXh0PjwvZz48ZyBjbGFzcz0ibWVzc2FnZSIgZGF0YS1wYXJ0aWNpcGFudC0xPSJDb250cm9sbGVyIiBkYXRhLXBhcnRpY2lwYW50LTI9IkdhdGV3YXkiPjxwb2x5Z29uIGZpbGw9IiMxODE4MTgiIHBvaW50cz0iMjg1LjUsNTU0LjUyMzQsMjc1LjUsNTU4LjUyMzQsMjg1LjUsNTYyLjUyMzQsMjgxLjUsNTU4LjUyMzQiIHN0eWxlPSJzdHJva2U6IzE4MTgxODtzdHJva2Utd2lkdGg6MTsiLz48bGluZSBzdHlsZT0ic3Ryb2tlOiMxODE4MTg7c3Ryb2tlLXdpZHRoOjE7c3Ryb2tlLWRhc2hhcnJheToyLjAsMi4wOyIgeDE9IjI3OS41IiB4Mj0iNDQ4LjUiIHkxPSI1NTguNTIzNCIgeTI9IjU1OC41MjM0Ii8+PHRleHQgZmlsbD0iIzAwMDAwMCIgZm9udC1mYW1pbHk9InNhbnMtc2VyaWYiIGZvbnQtc2l6ZT0iMTMiIGxlbmd0aEFkanVzdD0ic3BhY2luZyIgdGV4dExlbmd0aD0iNzgiIHg9IjI5MS41IiB5PSI1NzEuODEyNSI+JiMzNjgyMDsmIzIyMjM4OyYjMzg0ODA7JiMyNzk2OTsmIzM4MTY5OyYjMzU4MjM7PC90ZXh0PjwvZz48ZyBjbGFzcz0ibWVzc2FnZSIgZGF0YS1wYXJ0aWNpcGFudC0xPSJHYXRld2F5IiBkYXRhLXBhcnRpY2lwYW50LTI9IiYjMjk5OTI7JiMyNTE0MzsiPjxwb2x5Z29uIGZpbGw9IiMxODE4MTgiIHBvaW50cz0iNzMsNTgyLjQzNzUsNjMsNTg2LjQzNzUsNzMsNTkwLjQzNzUsNjksNTg2LjQzNzUiIHN0eWxlPSJzdHJva2U6IzE4MTgxODtzdHJva2Utd2lkdGg6MTsiLz48bGluZSBzdHlsZT0ic3Ryb2tlOiMxODE4MTg7c3Ryb2tlLXdpZHRoOjE7c3Ryb2tlLWRhc2hhcnJheToyLjAsMi4wOyIgeDE9IjY3IiB4Mj0iMjY4LjUiIHkxPSI1ODYuNDM3NSIgeTI9IjU4Ni40Mzc1Ii8+PHRleHQgZmlsbD0iIzAwMDAwMCIgZm9udC1mYW1pbHk9InNhbnMtc2VyaWYiIGZvbnQtc2l6ZT0iMTMiIGxlbmd0aEFkanVzdD0ic3BhY2luZyIgdGV4dExlbmd0aD0iNzgiIHg9Ijc5IiB5PSI1OTkuNzI2NiI+JiMzNjgyMDsmIzIyMjM4OyYjMzgxNjk7JiMzNTgyMzsmIzIwNDQ5OyYjMjQ2ODc7PC90ZXh0PjwvZz48bGluZSBzdHlsZT0ic3Ryb2tlOiMwMDAwMDA7c3Ryb2tlLXdpZHRoOjE7c3Ryb2tlLWRhc2hhcnJheToyLjAsMi4wOyIgeDE9IjIwIiB4Mj0iMTA2Ni41IiB5MT0iNjExLjM1MTYiIHkyPSI2MTEuMzUxNiIvPjx0ZXh0IGZpbGw9IiMwMDAwMDAiIGZvbnQtZmFtaWx5PSJzYW5zLXNlcmlmIiBmb250LXNpemU9IjExIiBmb250LXdlaWdodD0iYm9sZCIgbGVuZ3RoQWRqdXN0PSJzcGFjaW5nIiB0ZXh0TGVuZ3RoPSI1NSIgeD0iMjUiIHk9IjYyMS43NSI+WyYjMzY4OTA7JiMzNjgwNzsmIzM4NDgwOyYjMjc5Njk7XTwvdGV4dD48ZyBjbGFzcz0ibWVzc2FnZSIgZGF0YS1wYXJ0aWNpcGFudC0xPSJMaW1pdGVyIiBkYXRhLXBhcnRpY2lwYW50LTI9IkNvbnRyb2xsZXIiPjxwb2x5Z29uIGZpbGw9IiMxODE4MTgiIHBvaW50cz0iNDY1LjUsNjI0LjEyNSw0NTUuNSw2MjguMTI1LDQ2NS41LDYzMi4xMjUsNDYxLjUsNjI4LjEyNSIgc3R5bGU9InN0cm9rZTojMTgxODE4O3N0cm9rZS13aWR0aDoxOyIvPjxsaW5lIHN0eWxlPSJzdHJva2U6IzE4MTgxODtzdHJva2Utd2lkdGg6MTtzdHJva2UtZGFzaGFycmF5OjIuMCwyLjA7IiB4MT0iNDU5LjUiIHgyPSI3MDMiIHkxPSI2MjguMTI1IiB5Mj0iNjI4LjEyNSIvPjx0ZXh0IGZpbGw9IiMwMDAwMDAiIGZvbnQtZmFtaWx5PSJzYW5zLXNlcmlmIiBmb250LXNpemU9IjEzIiBsZW5ndGhBZGp1c3Q9InNwYWNpbmciIHRleHRMZW5ndGg9Ijc4IiB4PSI0NzEuNSIgeT0iNjQxLjQxNDEiPiYjMzY4MjA7JiMyMjIzODsmIzM4NDgwOyYjMjc5Njk7JiMzMjQ2NzsmIzI2NTI0OzwvdGV4dD48L2c+PGcgY2xhc3M9Im1lc3NhZ2UiIGRhdGEtcGFydGljaXBhbnQtMT0iQ29udHJvbGxlciIgZGF0YS1wYXJ0aWNpcGFudC0yPSJRdWVzdGlvblN1Ym1pdFNlcnZpY2UiPjxwb2x5Z29uIGZpbGw9IiMxODE4MTgiIHBvaW50cz0iNzg4LDY4MS44NjcyLDc5OCw2ODUuODY3Miw3ODgsNjg5Ljg2NzIsNzkyLDY4NS44NjcyIiBzdHlsZT0ic3Ryb2tlOiMxODE4MTg7c3Ryb2tlLXdpZHRoOjE7Ii8+PGxpbmUgc3R5bGU9InN0cm9rZTojMTgxODE4O3N0cm9rZS13aWR0aDoxOyIgeDE9IjQ0OS41IiB4Mj0iNzk0IiB5MT0iNjg1Ljg2NzIiIHkyPSI2ODUuODY3MiIvPjx0ZXh0IGZpbGw9IiMwMDAwMDAiIGZvbnQtZmFtaWx5PSJzYW5zLXNlcmlmIiBmb250LXNpemU9IjEzIiBsZW5ndGhBZGp1c3Q9InNwYWNpbmciIHRleHRMZW5ndGg9Ijc4IiB4PSI0NTYuNSIgeT0iNjY4LjMyODEiPiYjMjUxOTE7JiMzNDg5MjsmIzI1NTUyOyYjMjAxMzI7JiMyNTgwNTsmIzIwMzE2OzwvdGV4dD48dGV4dCBmaWxsPSIjMDAwMDAwIiBmb250LWZhbWlseT0ic2Fucy1zZXJpZiIgZm9udC1zaXplPSIxMyIgbGVuZ3RoQWRqdXN0PSJzcGFjaW5nIiB0ZXh0TGVuZ3RoPSIxMjMuNSIgeD0iNDYzIiB5PSI2ODIuMjQyMiI+I2RvUXVlc3Rpb25TdWJtaXQoKTwvdGV4dD48L2c+PGcgY2xhc3M9Im1lc3NhZ2UiIGRhdGEtcGFydGljaXBhbnQtMT0iUXVlc3Rpb25TdWJtaXRTZXJ2aWNlIiBkYXRhLXBhcnRpY2lwYW50LTI9IlF1ZXN0aW9uU3VibWl0U2VydmljZSI+PGxpbmUgc3R5bGU9InN0cm9rZTojMTgxODE4O3N0cm9rZS13aWR0aDoxOyIgeDE9IjgxMCIgeDI9Ijg1MiIgeTE9IjcyNy42OTUzIiB5Mj0iNzI3LjY5NTMiLz48bGluZSBzdHlsZT0ic3Ryb2tlOiMxODE4MTg7c3Ryb2tlLXdpZHRoOjE7IiB4MT0iODUyIiB4Mj0iODUyIiB5MT0iNzI3LjY5NTMiIHkyPSI3NDAuNjk1MyIvPjxsaW5lIHN0eWxlPSJzdHJva2U6IzE4MTgxODtzdHJva2Utd2lkdGg6MTsiIHgxPSI4MTEiIHgyPSI4NTIiIHkxPSI3NDAuNjk1MyIgeTI9Ijc0MC42OTUzIi8+PHBvbHlnb24gZmlsbD0iIzE4MTgxOCIgcG9pbnRzPSI4MjEsNzM2LjY5NTMsODExLDc0MC42OTUzLDgyMSw3NDQuNjk1Myw4MTcsNzQwLjY5NTMiIHN0eWxlPSJzdHJva2U6IzE4MTgxODtzdHJva2Utd2lkdGg6MTsiLz48dGV4dCBmaWxsPSIjMDAwMDAwIiBmb250LWZhbWlseT0ic2Fucy1zZXJpZiIgZm9udC1zaXplPSIxMyIgbGVuZ3RoQWRqdXN0PSJzcGFjaW5nIiB0ZXh0TGVuZ3RoPSI3OCIgeD0iODE3IiB5PSI3MTAuMTU2MyI+JiMyNjY1NzsmIzM5NTY0OyYjMzI1MzQ7JiMzMTI0MzsmIzM1ODIxOyYjMzUzMjg7PC90ZXh0Pjx0ZXh0IGZpbGw9IiMwMDAwMDAiIGZvbnQtZmFtaWx5PSJzYW5zLXNlcmlmIiBmb250LXNpemU9IjEzIiBsZW5ndGhBZGp1c3Q9InNwYWNpbmciIHRleHRMZW5ndGg9IjUyIiB4PSI4MTciIHk9IjcyNC4wNzAzIj4mIzI2MTU5OyYjMjE1NDI7JiMyMTUxMjsmIzI3ODYxOzwvdGV4dD48L2c+PHBhdGggZD0iTTMwLDc1NS42OTUzIEw5NC41LDc1NS42OTUzIEw5NC41LDc2MS42MDk0IEw4NC41LDc3MS42MDk0IEwzMCw3NzEuNjA5NCBMMzAsNzU1LjY5NTMiIGZpbGw9IiNFRUVFRUUiIHN0eWxlPSJzdHJva2U6IzAwMDAwMDtzdHJva2Utd2lkdGg6MS41OyIvPjxyZWN0IGZpbGw9Im5vbmUiIGhlaWdodD0iOTkuNjU2MyIgc3R5bGU9InN0cm9rZTojMDAwMDAwO3N0cm9rZS13aWR0aDoxLjU7IiB3aWR0aD0iODQxIiB4PSIzMCIgeT0iNzU1LjY5NTMiLz48dGV4dCBmaWxsPSIjMDAwMDAwIiBmb250LWZhbWlseT0ic2Fucy1zZXJpZiIgZm9udC1zaXplPSIxMyIgZm9udC13ZWlnaHQ9ImJvbGQiIGxlbmd0aEFkanVzdD0ic3BhY2luZyIgdGV4dExlbmd0aD0iMTkuNSIgeD0iNDUiIHk9Ijc2OC45ODQ0Ij5hbHQ8L3RleHQ+PHRleHQgZmlsbD0iIzAwMDAwMCIgZm9udC1mYW1pbHk9InNhbnMtc2VyaWYiIGZvbnQtc2l6ZT0iMTEiIGZvbnQtd2VpZ2h0PSJib2xkIiBsZW5ndGhBZGp1c3Q9InNwYWNpbmciIHRleHRMZW5ndGg9IjU1IiB4PSIxMDkuNSIgeT0iNzY4LjA5MzgiPlsmIzM1ODIxOyYjMzUzMjg7JiMzODc1MDsmIzI3ODYxO108L3RleHQ+PGcgY2xhc3M9Im1lc3NhZ2UiIGRhdGEtcGFydGljaXBhbnQtMT0iUXVlc3Rpb25TdWJtaXRTZXJ2aWNlIiBkYXRhLXBhcnRpY2lwYW50LTI9IkNvbnRyb2xsZXIiPjxwb2x5Z29uIGZpbGw9IiMxODE4MTgiIHBvaW50cz0iNDY1LjUsNzcxLjYwOTQsNDU1LjUsNzc1LjYwOTQsNDY1LjUsNzc5LjYwOTQsNDYxLjUsNzc1LjYwOTQiIHN0eWxlPSJzdHJva2U6IzE4MTgxODtzdHJva2Utd2lkdGg6MTsiLz48bGluZSBzdHlsZT0ic3Ryb2tlOiMxODE4MTg7c3Ryb2tlLXdpZHRoOjE7c3Ryb2tlLWRhc2hhcnJheToyLjAsMi4wOyIgeDE9IjQ1OS41IiB4Mj0iODA0IiB5MT0iNzc1LjYwOTQiIHkyPSI3NzUuNjA5NCIvPjx0ZXh0IGZpbGw9IiMwMDAwMDAiIGZvbnQtZmFtaWx5PSJzYW5zLXNlcmlmIiBmb250LXNpemU9IjEzIiBsZW5ndGhBZGp1c3Q9InNwYWNpbmciIHRleHRMZW5ndGg9IjUyIiB4PSI0NzEuNSIgeT0iNzg4Ljg5ODQiPiYjMjUyNDM7JiMyMDk4NjsmIzI0MzIyOyYjMjQxMjA7PC90ZXh0PjwvZz48ZyBjbGFzcz0ibWVzc2FnZSIgZGF0YS1wYXJ0aWNpcGFudC0xPSJDb250cm9sbGVyIiBkYXRhLXBhcnRpY2lwYW50LTI9IkdhdGV3YXkiPjxwb2x5Z29uIGZpbGw9IiMxODE4MTgiIHBvaW50cz0iMjg1LjUsNzk5LjUyMzQsMjc1LjUsODAzLjUyMzQsMjg1LjUsODA3LjUyMzQsMjgxLjUsODAzLjUyMzQiIHN0eWxlPSJzdHJva2U6IzE4MTgxODtzdHJva2Utd2lkdGg6MTsiLz48bGluZSBzdHlsZT0ic3Ryb2tlOiMxODE4MTg7c3Ryb2tlLXdpZHRoOjE7c3Ryb2tlLWRhc2hhcnJheToyLjAsMi4wOyIgeDE9IjI3OS41IiB4Mj0iNDQ4LjUiIHkxPSI4MDMuNTIzNCIgeTI9IjgwMy41MjM0Ii8+PHRleHQgZmlsbD0iIzAwMDAwMCIgZm9udC1mYW1pbHk9InNhbnMtc2VyaWYiIGZvbnQtc2l6ZT0iMTMiIGxlbmd0aEFkanVzdD0ic3BhY2luZyIgdGV4dExlbmd0aD0iNzgiIHg9IjI5MS41IiB5PSI4MTYuODEyNSI+JiMzNjgyMDsmIzIyMjM4OyYjMzgxNjk7JiMzNTgyMzsmIzIwNDQ5OyYjMjQ2ODc7PC90ZXh0PjwvZz48ZyBjbGFzcz0ibWVzc2FnZSIgZGF0YS1wYXJ0aWNpcGFudC0xPSJHYXRld2F5IiBkYXRhLXBhcnRpY2lwYW50LTI9IiYjMjk5OTI7JiMyNTE0MzsiPjxwb2x5Z29uIGZpbGw9IiMxODE4MTgiIHBvaW50cz0iNzMsODI3LjQzNzUsNjMsODMxLjQzNzUsNzMsODM1LjQzNzUsNjksODMxLjQzNzUiIHN0eWxlPSJzdHJva2U6IzE4MTgxODtzdHJva2Utd2lkdGg6MTsiLz48bGluZSBzdHlsZT0ic3Ryb2tlOiMxODE4MTg7c3Ryb2tlLXdpZHRoOjE7c3Ryb2tlLWRhc2hhcnJheToyLjAsMi4wOyIgeDE9IjY3IiB4Mj0iMjY4LjUiIHkxPSI4MzEuNDM3NSIgeTI9IjgzMS40Mzc1Ii8+PHRleHQgZmlsbD0iIzAwMDAwMCIgZm9udC1mYW1pbHk9InNhbnMtc2VyaWYiIGZvbnQtc2l6ZT0iMTMiIGxlbmd0aEFkanVzdD0ic3BhY2luZyIgdGV4dExlbmd0aD0iNzgiIHg9Ijc5IiB5PSI4NDQuNzI2NiI+JiMzNjgyMDsmIzIyMjM4OyYjMzgxNjk7JiMzNTgyMzsmIzIwNDQ5OyYjMjQ2ODc7PC90ZXh0PjwvZz48ZyBjbGFzcz0ibWVzc2FnZSIgZGF0YS1wYXJ0aWNpcGFudC0xPSJRdWVzdGlvblN1Ym1pdFNlcnZpY2UiIGRhdGEtcGFydGljaXBhbnQtMj0iREIiPjxwb2x5Z29uIGZpbGw9IiMxODE4MTgiIHBvaW50cz0iOTIxLDg3OC4yNjU2LDkzMSw4ODIuMjY1Niw5MjEsODg2LjI2NTYsOTI1LDg4Mi4yNjU2IiBzdHlsZT0ic3Ryb2tlOiMxODE4MTg7c3Ryb2tlLXdpZHRoOjE7Ii8+PGxpbmUgc3R5bGU9InN0cm9rZTojMTgxODE4O3N0cm9rZS13aWR0aDoxOyIgeDE9IjgxMCIgeDI9IjkyNyIgeTE9Ijg4Mi4yNjU2IiB5Mj0iODgyLjI2NTYiLz48dGV4dCBmaWxsPSIjMDAwMDAwIiBmb250LWZhbWlseT0ic2Fucy1zZXJpZiIgZm9udC1zaXplPSIxMyIgbGVuZ3RoQWRqdXN0PSJzcGFjaW5nIiB0ZXh0TGVuZ3RoPSIxMDQiIHg9IjgxNyIgeT0iODc4LjY0MDYiPiYjMjY1OTc7JiMzNTgxMDsmIzM5MDY0OyYjMzA0NDY7JiMyNjE1OTsmIzIxNTQyOyYjMjMzODQ7JiMyMjMxMjs8L3RleHQ+PC9nPjxnIGNsYXNzPSJtZXNzYWdlIiBkYXRhLXBhcnRpY2lwYW50LTE9IkRCIiBkYXRhLXBhcnRpY2lwYW50LTI9IlF1ZXN0aW9uU3VibWl0U2VydmljZSI+PHBvbHlnb24gZmlsbD0iIzE4MTgxOCIgcG9pbnRzPSI4MjEsOTA2LjE3OTcsODExLDkxMC4xNzk3LDgyMSw5MTQuMTc5Nyw4MTcsOTEwLjE3OTciIHN0eWxlPSJzdHJva2U6IzE4MTgxODtzdHJva2Utd2lkdGg6MTsiLz48bGluZSBzdHlsZT0ic3Ryb2tlOiMxODE4MTg7c3Ryb2tlLXdpZHRoOjE7c3Ryb2tlLWRhc2hhcnJheToyLjAsMi4wOyIgeDE9IjgxNSIgeDI9IjkzNyIgeTE9IjkxMC4xNzk3IiB5Mj0iOTEwLjE3OTciLz48dGV4dCBmaWxsPSIjMDAwMDAwIiBmb250LWZhbWlseT0ic2Fucy1zZXJpZiIgZm9udC1zaXplPSIxMyIgbGVuZ3RoQWRqdXN0PSJzcGFjaW5nIiB0ZXh0TGVuZ3RoPSI3OCIgeD0iODI3IiB5PSI5MDYuNTU0NyI+JiMzNjgyMDsmIzIyMjM4OyYjMjY1OTc7JiMzNTgxMDsmIzMyNDY3OyYjMjY1MjQ7PC90ZXh0PjwvZz48cGF0aCBkPSJNMzAsOTI1LjE3OTcgTDk0LjUsOTI1LjE3OTcgTDk0LjUsOTMxLjA5MzggTDg0LjUsOTQxLjA5MzggTDMwLDk0MS4wOTM4IEwzMCw5MjUuMTc5NyIgZmlsbD0iI0VFRUVFRSIgc3R5bGU9InN0cm9rZTojMDAwMDAwO3N0cm9rZS13aWR0aDoxLjU7Ii8+PHJlY3QgZmlsbD0ibm9uZSIgaGVpZ2h0PSI5OS42NTYzIiBzdHlsZT0ic3Ryb2tlOiMwMDAwMDA7c3Ryb2tlLXdpZHRoOjEuNTsiIHdpZHRoPSI4NDEiIHg9IjMwIiB5PSI5MjUuMTc5NyIvPjx0ZXh0IGZpbGw9IiMwMDAwMDAiIGZvbnQtZmFtaWx5PSJzYW5zLXNlcmlmIiBmb250LXNpemU9IjEzIiBmb250LXdlaWdodD0iYm9sZCIgbGVuZ3RoQWRqdXN0PSJzcGFjaW5nIiB0ZXh0TGVuZ3RoPSIxOS41IiB4PSI0NSIgeT0iOTM4LjQ2ODgiPmFsdDwvdGV4dD48dGV4dCBmaWxsPSIjMDAwMDAwIiBmb250LWZhbWlseT0ic2Fucy1zZXJpZiIgZm9udC1zaXplPSIxMSIgZm9udC13ZWlnaHQ9ImJvbGQiIGxlbmd0aEFkanVzdD0ic3BhY2luZyIgdGV4dExlbmd0aD0iNjYiIHg9IjEwOS41IiB5PSI5MzcuNTc4MSI+WyYjMzkwNjQ7JiMzMDQ0NjsmIzE5OTgxOyYjMjMzODQ7JiMyMjMxMjtdPC90ZXh0PjxnIGNsYXNzPSJtZXNzYWdlIiBkYXRhLXBhcnRpY2lwYW50LTE9IlF1ZXN0aW9uU3VibWl0U2VydmljZSIgZGF0YS1wYXJ0aWNpcGFudC0yPSJDb250cm9sbGVyIj48cG9seWdvbiBmaWxsPSIjMTgxODE4IiBwb2ludHM9IjQ2NS41LDk0MS4wOTM4LDQ1NS41LDk0NS4wOTM4LDQ2NS41LDk0OS4wOTM4LDQ2MS41LDk0NS4wOTM4IiBzdHlsZT0ic3Ryb2tlOiMxODE4MTg7c3Ryb2tlLXdpZHRoOjE7Ii8+PGxpbmUgc3R5bGU9InN0cm9rZTojMTgxODE4O3N0cm9rZS13aWR0aDoxO3N0cm9rZS1kYXNoYXJyYXk6Mi4wLDIuMDsiIHgxPSI0NTkuNSIgeDI9IjgwNCIgeTE9Ijk0NS4wOTM4IiB5Mj0iOTQ1LjA5MzgiLz48dGV4dCBmaWxsPSIjMDAwMDAwIiBmb250LWZhbWlseT0ic2Fucy1zZXJpZiIgZm9udC1zaXplPSIxMyIgbGVuZ3RoQWRqdXN0PSJzcGFjaW5nIiB0ZXh0TGVuZ3RoPSI1MiIgeD0iNDcxLjUiIHk9Ijk1OC4zODI4Ij4mIzI1MjQzOyYjMjA5ODY7JiMyNDMyMjsmIzI0MTIwOzwvdGV4dD48L2c+PGcgY2xhc3M9Im1lc3NhZ2UiIGRhdGEtcGFydGljaXBhbnQtMT0iQ29udHJvbGxlciIgZGF0YS1wYXJ0aWNpcGFudC0yPSJHYXRld2F5Ij48cG9seWdvbiBmaWxsPSIjMTgxODE4IiBwb2ludHM9IjI4NS41LDk2OS4wMDc4LDI3NS41LDk3My4wMDc4LDI4NS41LDk3Ny4wMDc4LDI4MS41LDk3My4wMDc4IiBzdHlsZT0ic3Ryb2tlOiMxODE4MTg7c3Ryb2tlLXdpZHRoOjE7Ii8+PGxpbmUgc3R5bGU9InN0cm9rZTojMTgxODE4O3N0cm9rZS13aWR0aDoxO3N0cm9rZS1kYXNoYXJyYXk6Mi4wLDIuMDsiIHgxPSIyNzkuNSIgeDI9IjQ0OC41IiB5MT0iOTczLjAwNzgiIHkyPSI5NzMuMDA3OCIvPjx0ZXh0IGZpbGw9IiMwMDAwMDAiIGZvbnQtZmFtaWx5PSJzYW5zLXNlcmlmIiBmb250LXNpemU9IjEzIiBsZW5ndGhBZGp1c3Q9InNwYWNpbmciIHRleHRMZW5ndGg9Ijc4IiB4PSIyOTEuNSIgeT0iOTg2LjI5NjkiPiYjMzY4MjA7JiMyMjIzODsmIzM4MTY5OyYjMzU4MjM7JiMyMDQ0OTsmIzI0Njg3OzwvdGV4dD48L2c+PGcgY2xhc3M9Im1lc3NhZ2UiIGRhdGEtcGFydGljaXBhbnQtMT0iR2F0ZXdheSIgZGF0YS1wYXJ0aWNpcGFudC0yPSImIzI5OTkyOyYjMjUxNDM7Ij48cG9seWdvbiBmaWxsPSIjMTgxODE4IiBwb2ludHM9IjczLDk5Ni45MjE5LDYzLDEwMDAuOTIxOSw3MywxMDA0LjkyMTksNjksMTAwMC45MjE5IiBzdHlsZT0ic3Ryb2tlOiMxODE4MTg7c3Ryb2tlLXdpZHRoOjE7Ii8+PGxpbmUgc3R5bGU9InN0cm9rZTojMTgxODE4O3N0cm9rZS13aWR0aDoxO3N0cm9rZS1kYXNoYXJyYXk6Mi4wLDIuMDsiIHgxPSI2NyIgeDI9IjI2OC41IiB5MT0iMTAwMC45MjE5IiB5Mj0iMTAwMC45MjE5Ii8+PHRleHQgZmlsbD0iIzAwMDAwMCIgZm9udC1mYW1pbHk9InNhbnMtc2VyaWYiIGZvbnQtc2l6ZT0iMTMiIGxlbmd0aEFkanVzdD0ic3BhY2luZyIgdGV4dExlbmd0aD0iNzgiIHg9Ijc5IiB5PSIxMDE0LjIxMDkiPiYjMzY4MjA7JiMyMjIzODsmIzM4MTY5OyYjMzU4MjM7JiMyMDQ0OTsmIzI0Njg3OzwvdGV4dD48L2c+PGcgY2xhc3M9Im1lc3NhZ2UiIGRhdGEtcGFydGljaXBhbnQtMT0iUXVlc3Rpb25TdWJtaXRTZXJ2aWNlIiBkYXRhLXBhcnRpY2lwYW50LTI9IkRCIj48cG9seWdvbiBmaWxsPSIjMTgxODE4IiBwb2ludHM9IjkyMSwxMDYxLjY2NDEsOTMxLDEwNjUuNjY0MSw5MjEsMTA2OS42NjQxLDkyNSwxMDY1LjY2NDEiIHN0eWxlPSJzdHJva2U6IzE4MTgxODtzdHJva2Utd2lkdGg6MTsiLz48bGluZSBzdHlsZT0ic3Ryb2tlOiMxODE4MTg7c3Ryb2tlLXdpZHRoOjE7IiB4MT0iODEwIiB4Mj0iOTI3IiB5MT0iMTA2NS42NjQxIiB5Mj0iMTA2NS42NjQxIi8+PHRleHQgZmlsbD0iIzAwMDAwMCIgZm9udC1mYW1pbHk9InNhbnMtc2VyaWYiIGZvbnQtc2l6ZT0iMTMiIGxlbmd0aEFkanVzdD0ic3BhY2luZyIgdGV4dExlbmd0aD0iOTEiIHg9IjgxNyIgeT0iMTA0OC4xMjUiPiYjMjYzNTY7JiMyNjAzMjsmIzM5MDY0OyYjMzA0NDY7JiMyNTU1MjsmIzIwMTMyOyYjMjU5Njg7PC90ZXh0Pjx0ZXh0IGZpbGw9IiMwMDAwMDAiIGZvbnQtZmFtaWx5PSJzYW5zLXNlcmlmIiBmb250LXNpemU9IjEzIiBsZW5ndGhBZGp1c3Q9InNwYWNpbmciIHRleHRMZW5ndGg9IjY1IiB4PSI4MjMuNSIgeT0iMTA2Mi4wMzkxIj4oJiMyNDEwMjsmIzM4MTQ1OyYjMjU4MDU7JiMyMDMxNjspPC90ZXh0PjwvZz48ZyBjbGFzcz0ibWVzc2FnZSIgZGF0YS1wYXJ0aWNpcGFudC0xPSJEQiIgZGF0YS1wYXJ0aWNpcGFudC0yPSJRdWVzdGlvblN1Ym1pdFNlcnZpY2UiPjxwb2x5Z29uIGZpbGw9IiMxODE4MTgiIHBvaW50cz0iODIxLDEwODkuNTc4MSw4MTEsMTA5My41NzgxLDgyMSwxMDk3LjU3ODEsODE3LDEwOTMuNTc4MSIgc3R5bGU9InN0cm9rZTojMTgxODE4O3N0cm9rZS13aWR0aDoxOyIvPjxsaW5lIHN0eWxlPSJzdHJva2U6IzE4MTgxODtzdHJva2Utd2lkdGg6MTtzdHJva2UtZGFzaGFycmF5OjIuMCwyLjA7IiB4MT0iODE1IiB4Mj0iOTM3IiB5MT0iMTA5My41NzgxIiB5Mj0iMTA5My41NzgxIi8+PHRleHQgZmlsbD0iIzAwMDAwMCIgZm9udC1mYW1pbHk9InNhbnMtc2VyaWYiIGZvbnQtc2l6ZT0iMTMiIGxlbmd0aEFkanVzdD0ic3BhY2luZyIgdGV4dExlbmd0aD0iNTIiIHg9IjgyNyIgeT0iMTA4OS45NTMxIj4mIzI2MzU2OyYjMjYwMzI7JiMzMjQ2NzsmIzI2NTI0OzwvdGV4dD48L2c+PHBhdGggZD0iTTMwLDExMDguNTc4MSBMOTQuNSwxMTA4LjU3ODEgTDk0LjUsMTExNC40OTIyIEw4NC41LDExMjQuNDkyMiBMMzAsMTEyNC40OTIyIEwzMCwxMTA4LjU3ODEiIGZpbGw9IiNFRUVFRUUiIHN0eWxlPSJzdHJva2U6IzAwMDAwMDtzdHJva2Utd2lkdGg6MS41OyIvPjxyZWN0IGZpbGw9Im5vbmUiIGhlaWdodD0iOTkuNjU2MyIgc3R5bGU9InN0cm9rZTojMDAwMDAwO3N0cm9rZS13aWR0aDoxLjU7IiB3aWR0aD0iODQxIiB4PSIzMCIgeT0iMTEwOC41NzgxIi8+PHRleHQgZmlsbD0iIzAwMDAwMCIgZm9udC1mYW1pbHk9InNhbnMtc2VyaWYiIGZvbnQtc2l6ZT0iMTMiIGZvbnQtd2VpZ2h0PSJib2xkIiBsZW5ndGhBZGp1c3Q9InNwYWNpbmciIHRleHRMZW5ndGg9IjE5LjUiIHg9IjQ1IiB5PSIxMTIxLjg2NzIiPmFsdDwvdGV4dD48dGV4dCBmaWxsPSIjMDAwMDAwIiBmb250LWZhbWlseT0ic2Fucy1zZXJpZiIgZm9udC1zaXplPSIxMSIgZm9udC13ZWlnaHQ9ImJvbGQiIGxlbmd0aEFkanVzdD0ic3BhY2luZyIgdGV4dExlbmd0aD0iNTUiIHg9IjEwOS41IiB5PSIxMTIwLjk3NjYiPlsmIzI2MzU2OyYjMjYwMzI7JiMyMjgzMzsmIzM2MTMzO108L3RleHQ+PGcgY2xhc3M9Im1lc3NhZ2UiIGRhdGEtcGFydGljaXBhbnQtMT0iUXVlc3Rpb25TdWJtaXRTZXJ2aWNlIiBkYXRhLXBhcnRpY2lwYW50LTI9IkNvbnRyb2xsZXIiPjxwb2x5Z29uIGZpbGw9IiMxODE4MTgiIHBvaW50cz0iNDY1LjUsMTEyNC40OTIyLDQ1NS41LDExMjguNDkyMiw0NjUuNSwxMTMyLjQ5MjIsNDYxLjUsMTEyOC40OTIyIiBzdHlsZT0ic3Ryb2tlOiMxODE4MTg7c3Ryb2tlLXdpZHRoOjE7Ii8+PGxpbmUgc3R5bGU9InN0cm9rZTojMTgxODE4O3N0cm9rZS13aWR0aDoxO3N0cm9rZS1kYXNoYXJyYXk6Mi4wLDIuMDsiIHgxPSI0NTkuNSIgeDI9IjgwNCIgeTE9IjExMjguNDkyMiIgeTI9IjExMjguNDkyMiIvPjx0ZXh0IGZpbGw9IiMwMDAwMDAiIGZvbnQtZmFtaWx5PSJzYW5zLXNlcmlmIiBmb250LXNpemU9IjEzIiBsZW5ndGhBZGp1c3Q9InNwYWNpbmciIHRleHRMZW5ndGg9IjUyIiB4PSI0NzEuNSIgeT0iMTE0MS43ODEzIj4mIzI1MjQzOyYjMjA5ODY7JiMyNDMyMjsmIzI0MTIwOzwvdGV4dD48L2c+PGcgY2xhc3M9Im1lc3NhZ2UiIGRhdGEtcGFydGljaXBhbnQtMT0iQ29udHJvbGxlciIgZGF0YS1wYXJ0aWNpcGFudC0yPSJHYXRld2F5Ij48cG9seWdvbiBmaWxsPSIjMTgxODE4IiBwb2ludHM9IjI4NS41LDExNTIuNDA2MywyNzUuNSwxMTU2LjQwNjMsMjg1LjUsMTE2MC40MDYzLDI4MS41LDExNTYuNDA2MyIgc3R5bGU9InN0cm9rZTojMTgxODE4O3N0cm9rZS13aWR0aDoxOyIvPjxsaW5lIHN0eWxlPSJzdHJva2U6IzE4MTgxODtzdHJva2Utd2lkdGg6MTtzdHJva2UtZGFzaGFycmF5OjIuMCwyLjA7IiB4MT0iMjc5LjUiIHgyPSI0NDguNSIgeTE9IjExNTYuNDA2MyIgeTI9IjExNTYuNDA2MyIvPjx0ZXh0IGZpbGw9IiMwMDAwMDAiIGZvbnQtZmFtaWx5PSJzYW5zLXNlcmlmIiBmb250LXNpemU9IjEzIiBsZW5ndGhBZGp1c3Q9InNwYWNpbmciIHRleHRMZW5ndGg9Ijc4IiB4PSIyOTEuNSIgeT0iMTE2OS42OTUzIj4mIzM2ODIwOyYjMjIyMzg7JiMzODE2OTsmIzM1ODIzOyYjMjA0NDk7JiMyNDY4Nzs8L3RleHQ+PC9nPjxnIGNsYXNzPSJtZXNzYWdlIiBkYXRhLXBhcnRpY2lwYW50LTE9IkdhdGV3YXkiIGRhdGEtcGFydGljaXBhbnQtMj0iJiMyOTk5MjsmIzI1MTQzOyI+PHBvbHlnb24gZmlsbD0iIzE4MTgxOCIgcG9pbnRzPSI3MywxMTgwLjMyMDMsNjMsMTE4NC4zMjAzLDczLDExODguMzIwMyw2OSwxMTg0LjMyMDMiIHN0eWxlPSJzdHJva2U6IzE4MTgxODtzdHJva2Utd2lkdGg6MTsiLz48bGluZSBzdHlsZT0ic3Ryb2tlOiMxODE4MTg7c3Ryb2tlLXdpZHRoOjE7c3Ryb2tlLWRhc2hhcnJheToyLjAsMi4wOyIgeDE9IjY3IiB4Mj0iMjY4LjUiIHkxPSIxMTg0LjMyMDMiIHkyPSIxMTg0LjMyMDMiLz48dGV4dCBmaWxsPSIjMDAwMDAwIiBmb250LWZhbWlseT0ic2Fucy1zZXJpZiIgZm9udC1zaXplPSIxMyIgbGVuZ3RoQWRqdXN0PSJzcGFjaW5nIiB0ZXh0TGVuZ3RoPSI3OCIgeD0iNzkiIHk9IjExOTcuNjA5NCI+JiMzNjgyMDsmIzIyMjM4OyYjMzgxNjk7JiMzNTgyMzsmIzIwNDQ5OyYjMjQ2ODc7PC90ZXh0PjwvZz48ZyBjbGFzcz0ibWVzc2FnZSIgZGF0YS1wYXJ0aWNpcGFudC0xPSJRdWVzdGlvblN1Ym1pdFNlcnZpY2UiIGRhdGEtcGFydGljaXBhbnQtMj0iREIiPjxwb2x5Z29uIGZpbGw9IiMxODE4MTgiIHBvaW50cz0iOTIxLDEyMzEuMTQ4NCw5MzEsMTIzNS4xNDg0LDkyMSwxMjM5LjE0ODQsOTI1LDEyMzUuMTQ4NCIgc3R5bGU9InN0cm9rZTojMTgxODE4O3N0cm9rZS13aWR0aDoxOyIvPjxsaW5lIHN0eWxlPSJzdHJva2U6IzE4MTgxODtzdHJva2Utd2lkdGg6MTsiIHgxPSI4MTAiIHgyPSI5MjciIHkxPSIxMjM1LjE0ODQiIHkyPSIxMjM1LjE0ODQiLz48dGV4dCBmaWxsPSIjMDAwMDAwIiBmb250LWZhbWlseT0ic2Fucy1zZXJpZiIgZm9udC1zaXplPSIxMyIgbGVuZ3RoQWRqdXN0PSJzcGFjaW5nIiB0ZXh0TGVuZ3RoPSI5MSIgeD0iODE3IiB5PSIxMjMxLjUyMzQiPiYjMjU1NTQ7JiMyMDgzNzsmIzI2MDMyOyYjMjU1NTI7JiMyMDEzMjsmIzM1NzYwOyYjMjQ0MDU7PC90ZXh0PjwvZz48ZyBjbGFzcz0ibWVzc2FnZSIgZGF0YS1wYXJ0aWNpcGFudC0xPSJEQiIgZGF0YS1wYXJ0aWNpcGFudC0yPSJRdWVzdGlvblN1Ym1pdFNlcnZpY2UiPjxwb2x5Z29uIGZpbGw9IiMxODE4MTgiIHBvaW50cz0iODIxLDEyNTkuMDYyNSw4MTEsMTI2My4wNjI1LDgyMSwxMjY3LjA2MjUsODE3LDEyNjMuMDYyNSIgc3R5bGU9InN0cm9rZTojMTgxODE4O3N0cm9rZS13aWR0aDoxOyIvPjxsaW5lIHN0eWxlPSJzdHJva2U6IzE4MTgxODtzdHJva2Utd2lkdGg6MTtzdHJva2UtZGFzaGFycmF5OjIuMCwyLjA7IiB4MT0iODE1IiB4Mj0iOTM3IiB5MT0iMTI2My4wNjI1IiB5Mj0iMTI2My4wNjI1Ii8+PHRleHQgZmlsbD0iIzAwMDAwMCIgZm9udC1mYW1pbHk9InNhbnMtc2VyaWYiIGZvbnQtc2l6ZT0iMTMiIGxlbmd0aEFkanVzdD0ic3BhY2luZyIgdGV4dExlbmd0aD0iNTIiIHg9IjgyNyIgeT0iMTI1OS40Mzc1Ij4mIzI1NTU0OyYjMjA4Mzc7JiMzMjQ2NzsmIzI2NTI0OzwvdGV4dD48L2c+PHBhdGggZD0iTTMwLDEyNzguMDYyNSBMOTQuNSwxMjc4LjA2MjUgTDk0LjUsMTI4My45NzY2IEw4NC41LDEyOTMuOTc2NiBMMzAsMTI5My45NzY2IEwzMCwxMjc4LjA2MjUiIGZpbGw9IiNFRUVFRUUiIHN0eWxlPSJzdHJva2U6IzAwMDAwMDtzdHJva2Utd2lkdGg6MS41OyIvPjxyZWN0IGZpbGw9Im5vbmUiIGhlaWdodD0iOTkuNjU2MyIgc3R5bGU9InN0cm9rZTojMDAwMDAwO3N0cm9rZS13aWR0aDoxLjU7IiB3aWR0aD0iODQxIiB4PSIzMCIgeT0iMTI3OC4wNjI1Ii8+PHRleHQgZmlsbD0iIzAwMDAwMCIgZm9udC1mYW1pbHk9InNhbnMtc2VyaWYiIGZvbnQtc2l6ZT0iMTMiIGZvbnQtd2VpZ2h0PSJib2xkIiBsZW5ndGhBZGp1c3Q9InNwYWNpbmciIHRleHRMZW5ndGg9IjE5LjUiIHg9IjQ1IiB5PSIxMjkxLjM1MTYiPmFsdDwvdGV4dD48dGV4dCBmaWxsPSIjMDAwMDAwIiBmb250LWZhbWlseT0ic2Fucy1zZXJpZiIgZm9udC1zaXplPSIxMSIgZm9udC13ZWlnaHQ9ImJvbGQiIGxlbmd0aEFkanVzdD0ic3BhY2luZyIgdGV4dExlbmd0aD0iNTUiIHg9IjEwOS41IiB5PSIxMjkwLjQ2MDkiPlsmIzI1NTU0OyYjMjA4Mzc7JiMyMjgzMzsmIzM2MTMzO108L3RleHQ+PGcgY2xhc3M9Im1lc3NhZ2UiIGRhdGEtcGFydGljaXBhbnQtMT0iUXVlc3Rpb25TdWJtaXRTZXJ2aWNlIiBkYXRhLXBhcnRpY2lwYW50LTI9IkNvbnRyb2xsZXIiPjxwb2x5Z29uIGZpbGw9IiMxODE4MTgiIHBvaW50cz0iNDY1LjUsMTI5My45NzY2LDQ1NS41LDEyOTcuOTc2Niw0NjUuNSwxMzAxLjk3NjYsNDYxLjUsMTI5Ny45NzY2IiBzdHlsZT0ic3Ryb2tlOiMxODE4MTg7c3Ryb2tlLXdpZHRoOjE7Ii8+PGxpbmUgc3R5bGU9InN0cm9rZTojMTgxODE4O3N0cm9rZS13aWR0aDoxO3N0cm9rZS1kYXNoYXJyYXk6Mi4wLDIuMDsiIHgxPSI0NTkuNSIgeDI9IjgwNCIgeTE9IjEyOTcuOTc2NiIgeTI9IjEyOTcuOTc2NiIvPjx0ZXh0IGZpbGw9IiMwMDAwMDAiIGZvbnQtZmFtaWx5PSJzYW5zLXNlcmlmIiBmb250LXNpemU9IjEzIiBsZW5ndGhBZGp1c3Q9InNwYWNpbmciIHRleHRMZW5ndGg9IjUyIiB4PSI0NzEuNSIgeT0iMTMxMS4yNjU2Ij4mIzI1MjQzOyYjMjA5ODY7JiMyNDMyMjsmIzI0MTIwOzwvdGV4dD48L2c+PGcgY2xhc3M9Im1lc3NhZ2UiIGRhdGEtcGFydGljaXBhbnQtMT0iQ29udHJvbGxlciIgZGF0YS1wYXJ0aWNpcGFudC0yPSJHYXRld2F5Ij48cG9seWdvbiBmaWxsPSIjMTgxODE4IiBwb2ludHM9IjI4NS41LDEzMjEuODkwNiwyNzUuNSwxMzI1Ljg5MDYsMjg1LjUsMTMyOS44OTA2LDI4MS41LDEzMjUuODkwNiIgc3R5bGU9InN0cm9rZTojMTgxODE4O3N0cm9rZS13aWR0aDoxOyIvPjxsaW5lIHN0eWxlPSJzdHJva2U6IzE4MTgxODtzdHJva2Utd2lkdGg6MTtzdHJva2UtZGFzaGFycmF5OjIuMCwyLjA7IiB4MT0iMjc5LjUiIHgyPSI0NDguNSIgeTE9IjEzMjUuODkwNiIgeTI9IjEzMjUuODkwNiIvPjx0ZXh0IGZpbGw9IiMwMDAwMDAiIGZvbnQtZmFtaWx5PSJzYW5zLXNlcmlmIiBmb250LXNpemU9IjEzIiBsZW5ndGhBZGp1c3Q9InNwYWNpbmciIHRleHRMZW5ndGg9Ijc4IiB4PSIyOTEuNSIgeT0iMTMzOS4xNzk3Ij4mIzM2ODIwOyYjMjIyMzg7JiMzODE2OTsmIzM1ODIzOyYjMjA0NDk7JiMyNDY4Nzs8L3RleHQ+PC9nPjxnIGNsYXNzPSJtZXNzYWdlIiBkYXRhLXBhcnRpY2lwYW50LTE9IkdhdGV3YXkiIGRhdGEtcGFydGljaXBhbnQtMj0iJiMyOTk5MjsmIzI1MTQzOyI+PHBvbHlnb24gZmlsbD0iIzE4MTgxOCIgcG9pbnRzPSI3MywxMzQ5LjgwNDcsNjMsMTM1My44MDQ3LDczLDEzNTcuODA0Nyw2OSwxMzUzLjgwNDciIHN0eWxlPSJzdHJva2U6IzE4MTgxODtzdHJva2Utd2lkdGg6MTsiLz48bGluZSBzdHlsZT0ic3Ryb2tlOiMxODE4MTg7c3Ryb2tlLXdpZHRoOjE7c3Ryb2tlLWRhc2hhcnJheToyLjAsMi4wOyIgeDE9IjY3IiB4Mj0iMjY4LjUiIHkxPSIxMzUzLjgwNDciIHkyPSIxMzUzLjgwNDciLz48dGV4dCBmaWxsPSIjMDAwMDAwIiBmb250LWZhbWlseT0ic2Fucy1zZXJpZiIgZm9udC1zaXplPSIxMyIgbGVuZ3RoQWRqdXN0PSJzcGFjaW5nIiB0ZXh0TGVuZ3RoPSI3OCIgeD0iNzkiIHk9IjEzNjcuMDkzOCI+JiMzNjgyMDsmIzIyMjM4OyYjMzgxNjk7JiMzNTgyMzsmIzIwNDQ5OyYjMjQ2ODc7PC90ZXh0PjwvZz48ZyBjbGFzcz0ibWVzc2FnZSIgZGF0YS1wYXJ0aWNpcGFudC0xPSJRdWVzdGlvblN1Ym1pdFNlcnZpY2UiIGRhdGEtcGFydGljaXBhbnQtMj0iUHJvZHVjZXIiPjxwb2x5Z29uIGZpbGw9IiMxODE4MTgiIHBvaW50cz0iMTAwNC41LDE0MDAuNjMyOCwxMDE0LjUsMTQwNC42MzI4LDEwMDQuNSwxNDA4LjYzMjgsMTAwOC41LDE0MDQuNjMyOCIgc3R5bGU9InN0cm9rZTojMTgxODE4O3N0cm9rZS13aWR0aDoxOyIvPjxsaW5lIHN0eWxlPSJzdHJva2U6IzE4MTgxODtzdHJva2Utd2lkdGg6MTsiIHgxPSI4MTAiIHgyPSIxMDEwLjUiIHkxPSIxNDA0LjYzMjgiIHkyPSIxNDA0LjYzMjgiLz48dGV4dCBmaWxsPSIjMDAwMDAwIiBmb250LWZhbWlseT0ic2Fucy1zZXJpZiIgZm9udC1zaXplPSIxMyIgbGVuZ3RoQWRqdXN0PSJzcGFjaW5nIiB0ZXh0TGVuZ3RoPSIxMTciIHg9IjgxNyIgeT0iMTQwMS4wMDc4Ij4mIzIxNDU3OyYjMzY4NjU7JiMyODA0MDsmIzI0Njg3OyYjMzMyNjc7JiMyODA0MDsmIzI0Njg3OyYjMzg0MzE7JiMyMTAxNTs8L3RleHQ+PC9nPjxnIGNsYXNzPSJtZXNzYWdlIiBkYXRhLXBhcnRpY2lwYW50LTE9IlByb2R1Y2VyIiBkYXRhLXBhcnRpY2lwYW50LTI9IlF1ZXN0aW9uU3VibWl0U2VydmljZSI+PHBvbHlnb24gZmlsbD0iIzE4MTgxOCIgcG9pbnRzPSI4MjEsMTQyOC41NDY5LDgxMSwxNDMyLjU0NjksODIxLDE0MzYuNTQ2OSw4MTcsMTQzMi41NDY5IiBzdHlsZT0ic3Ryb2tlOiMxODE4MTg7c3Ryb2tlLXdpZHRoOjE7Ii8+PGxpbmUgc3R5bGU9InN0cm9rZTojMTgxODE4O3N0cm9rZS13aWR0aDoxO3N0cm9rZS1kYXNoYXJyYXk6Mi4wLDIuMDsiIHgxPSI4MTUiIHgyPSIxMDIwLjUiIHkxPSIxNDMyLjU0NjkiIHkyPSIxNDMyLjU0NjkiLz48dGV4dCBmaWxsPSIjMDAwMDAwIiBmb250LWZhbWlseT0ic2Fucy1zZXJpZiIgZm9udC1zaXplPSIxMyIgbGVuZ3RoQWRqdXN0PSJzcGFjaW5nIiB0ZXh0TGVuZ3RoPSI1MiIgeD0iODI3IiB5PSIxNDI4LjkyMTkiPiYjMjE0NTc7JiMzNjg2NTsmIzMwODMwOyYjMzU3NDg7PC90ZXh0PjwvZz48ZyBjbGFzcz0ibWVzc2FnZSIgZGF0YS1wYXJ0aWNpcGFudC0xPSJRdWVzdGlvblN1Ym1pdFNlcnZpY2UiIGRhdGEtcGFydGljaXBhbnQtMj0iQ29udHJvbGxlciI+PHBvbHlnb24gZmlsbD0iIzE4MTgxOCIgcG9pbnRzPSI0NjUuNSwxNDQwLjU0NjksNDU1LjUsMTQ0NC41NDY5LDQ2NS41LDE0NDguNTQ2OSw0NjEuNSwxNDQ0LjU0NjkiIHN0eWxlPSJzdHJva2U6IzE4MTgxODtzdHJva2Utd2lkdGg6MTsiLz48bGluZSBzdHlsZT0ic3Ryb2tlOiMxODE4MTg7c3Ryb2tlLXdpZHRoOjE7c3Ryb2tlLWRhc2hhcnJheToyLjAsMi4wOyIgeDE9IjQ1OS41IiB4Mj0iODA0IiB5MT0iMTQ0NC41NDY5IiB5Mj0iMTQ0NC41NDY5Ii8+PHRleHQgZmlsbD0iIzAwMDAwMCIgZm9udC1mYW1pbHk9InNhbnMtc2VyaWYiIGZvbnQtc2l6ZT0iMTMiIGxlbmd0aEFkanVzdD0ic3BhY2luZyIgdGV4dExlbmd0aD0iNjUiIHg9IjQ3MS41IiB5PSIxNDU3LjgzNTkiPiYjMzY4MjA7JiMyMjIzODsmIzI1NTUyOyYjMjAxMzI7SUQ8L3RleHQ+PC9nPjxnIGNsYXNzPSJtZXNzYWdlIiBkYXRhLXBhcnRpY2lwYW50LTE9IkNvbnRyb2xsZXIiIGRhdGEtcGFydGljaXBhbnQtMj0iR2F0ZXdheSI+PHBvbHlnb24gZmlsbD0iIzE4MTgxOCIgcG9pbnRzPSIyODUuNSwxNDY4LjQ2MDksMjc1LjUsMTQ3Mi40NjA5LDI4NS41LDE0NzYuNDYwOSwyODEuNSwxNDcyLjQ2MDkiIHN0eWxlPSJzdHJva2U6IzE4MTgxODtzdHJva2Utd2lkdGg6MTsiLz48bGluZSBzdHlsZT0ic3Ryb2tlOiMxODE4MTg7c3Ryb2tlLXdpZHRoOjE7c3Ryb2tlLWRhc2hhcnJheToyLjAsMi4wOyIgeDE9IjI3OS41IiB4Mj0iNDQ4LjUiIHkxPSIxNDcyLjQ2MDkiIHkyPSIxNDcyLjQ2MDkiLz48dGV4dCBmaWxsPSIjMDAwMDAwIiBmb250LWZhbWlseT0ic2Fucy1zZXJpZiIgZm9udC1zaXplPSIxMyIgbGVuZ3RoQWRqdXN0PSJzcGFjaW5nIiB0ZXh0TGVuZ3RoPSI1MiIgeD0iMjkxLjUiIHk9IjE0ODUuNzUiPiYjMzY4MjA7JiMyMjIzODsmIzMyNDY3OyYjMjY1MjQ7PC90ZXh0PjwvZz48ZyBjbGFzcz0ibWVzc2FnZSIgZGF0YS1wYXJ0aWNpcGFudC0xPSJHYXRld2F5IiBkYXRhLXBhcnRpY2lwYW50LTI9IiYjMjk5OTI7JiMyNTE0MzsiPjxwb2x5Z29uIGZpbGw9IiMxODE4MTgiIHBvaW50cz0iNzMsMTQ5Ni4zNzUsNjMsMTUwMC4zNzUsNzMsMTUwNC4zNzUsNjksMTUwMC4zNzUiIHN0eWxlPSJzdHJva2U6IzE4MTgxODtzdHJva2Utd2lkdGg6MTsiLz48bGluZSBzdHlsZT0ic3Ryb2tlOiMxODE4MTg7c3Ryb2tlLXdpZHRoOjE7c3Ryb2tlLWRhc2hhcnJheToyLjAsMi4wOyIgeDE9IjY3IiB4Mj0iMjY4LjUiIHkxPSIxNTAwLjM3NSIgeTI9IjE1MDAuMzc1Ii8+PHRleHQgZmlsbD0iIzAwMDAwMCIgZm9udC1mYW1pbHk9InNhbnMtc2VyaWYiIGZvbnQtc2l6ZT0iMTMiIGxlbmd0aEFkanVzdD0ic3BhY2luZyIgdGV4dExlbmd0aD0iNzgiIHg9Ijc5IiB5PSIxNTEzLjY2NDEiPiYjMzY4MjA7JiMyMjIzODsmIzI1NTUyOyYjMjAxMzI7JiMzMjQ2NzsmIzI2NTI0OzwvdGV4dD48L2c+PGxpbmUgc3R5bGU9InN0cm9rZTojMDAwMDAwO3N0cm9rZS13aWR0aDoxO3N0cm9rZS1kYXNoYXJyYXk6Mi4wLDIuMDsiIHgxPSIxMCIgeDI9IjEwNzYuNSIgeTE9IjE1MzIuMjg5MSIgeTI9IjE1MzIuMjg5MSIvPjx0ZXh0IGZpbGw9IiMwMDAwMDAiIGZvbnQtZmFtaWx5PSJzYW5zLXNlcmlmIiBmb250LXNpemU9IjExIiBmb250LXdlaWdodD0iYm9sZCIgbGVuZ3RoQWRqdXN0PSJzcGFjaW5nIiB0ZXh0TGVuZ3RoPSI1NSIgeD0iMTUiIHk9IjE1NDIuNjg3NSI+WyYjMzc0OTI7JiMyNjQzNTsmIzIyODMzOyYjMzYxMzM7XTwvdGV4dD48ZyBjbGFzcz0ibWVzc2FnZSIgZGF0YS1wYXJ0aWNpcGFudC0xPSJBdXRoRmlsdGVyIiBkYXRhLXBhcnRpY2lwYW50LTI9IkdhdGV3YXkiPjxwb2x5Z29uIGZpbGw9IiMxODE4MTgiIHBvaW50cz0iMjg1LjUsMTU0NS4wNjI1LDI3NS41LDE1NDkuMDYyNSwyODUuNSwxNTUzLjA2MjUsMjgxLjUsMTU0OS4wNjI1IiBzdHlsZT0ic3Ryb2tlOiMxODE4MTg7c3Ryb2tlLXdpZHRoOjE7Ii8+PGxpbmUgc3R5bGU9InN0cm9rZTojMTgxODE4O3N0cm9rZS13aWR0aDoxO3N0cm9rZS1kYXNoYXJyYXk6Mi4wLDIuMDsiIHgxPSIyNzkuNSIgeDI9IjM1NC41IiB5MT0iMTU0OS4wNjI1IiB5Mj0iMTU0OS4wNjI1Ii8+PHRleHQgZmlsbD0iIzAwMDAwMCIgZm9udC1mYW1pbHk9InNhbnMtc2VyaWYiIGZvbnQtc2l6ZT0iMTMiIGxlbmd0aEFkanVzdD0ic3BhY2luZyIgdGV4dExlbmd0aD0iNTIiIHg9IjI5MS41IiB5PSIxNTYyLjM1MTYiPiYjMzc0OTI7JiMyNjQzNTsmIzIyODMzOyYjMzYxMzM7PC90ZXh0PjwvZz48ZyBjbGFzcz0ibWVzc2FnZSIgZGF0YS1wYXJ0aWNpcGFudC0xPSJHYXRld2F5IiBkYXRhLXBhcnRpY2lwYW50LTI9IiYjMjk5OTI7JiMyNTE0MzsiPjxwb2x5Z29uIGZpbGw9IiMxODE4MTgiIHBvaW50cz0iNzMsMTU3Mi45NzY2LDYzLDE1NzYuOTc2Niw3MywxNTgwLjk3NjYsNjksMTU3Ni45NzY2IiBzdHlsZT0ic3Ryb2tlOiMxODE4MTg7c3Ryb2tlLXdpZHRoOjE7Ii8+PGxpbmUgc3R5bGU9InN0cm9rZTojMTgxODE4O3N0cm9rZS13aWR0aDoxO3N0cm9rZS1kYXNoYXJyYXk6Mi4wLDIuMDsiIHgxPSI2NyIgeDI9IjI2OC41IiB5MT0iMTU3Ni45NzY2IiB5Mj0iMTU3Ni45NzY2Ii8+PHRleHQgZmlsbD0iIzAwMDAwMCIgZm9udC1mYW1pbHk9InNhbnMtc2VyaWYiIGZvbnQtc2l6ZT0iMTMiIGxlbmd0aEFkanVzdD0ic3BhY2luZyIgdGV4dExlbmd0aD0iNDUuNSIgeD0iNzkiIHk9IjE1OTAuMjY1NiI+JiMzNjgyMDsmIzIyMjM4OzQwMTwvdGV4dD48L2c+PCEtLVNSQz1beExYUkp6SDA1N3hsaHZaOFlwdUdERjY5NjFFTjNNZTI0R0pWRFo1YlR1QURJdWpqNXk4UmU4RzVCeGxBSE4wSDE0N0gxN085QUNXYl8xYmNzWnh2NXZwRWpEamZUdFJidVlLYXhDRWNkSmRkRXp5dnZ2amZmdEJJcjdIV0pReFl4QlJLQS1rY2FiSHdQVEs0YnN3cnRSS0VOZ0VIcEtqMERpMWpzT0p6eWEzNDk2Qy1RYlJJOWpJZkpOMFJEY2xGR0NES0QzTVhEY2NnZ01sZmpFU0d0OE9UQ1dSSzRzZXBMQmhMZmhHMkxQRFFTX1RYeV9pbWZIWTZZei1ZejJXLTYtelFKQUtacXFMYzRzZTdyRmtLOUFHRXVKYmw5a21VYnFxdjlYaW1lVnhTcHhPRVRCSXRfRG1WZXl4bk04SUp0RE1iY0F0alRCOURyckFQOUU0WTZPeUxiVFo5RksyN0hnLWM2aDBMNmVSUzNNQ21oVk5WcWRNajd2WHcxYWdpOHczLWZiX3ZIZDJkaXhDRGpEdGh3MEdESnBvZzNtdEFqSTZiSU5CSUxGZzhnVF9CT0MxbGRVSFRrQTExZ25nMUN4UTV0cC1yM3FWbnRkQlduSkxKSmZrVTRTeGNxVlkyMUNaRjF4akhOb3owU21SVjRLMWdjODhZcDEwNjhISDhlSDdPZlFTYTJMMk5xaThqZUp2YkM0dXl4Wlp6MnlPZ0Mzel9uRkR2a3hZRER1UEhSWFhGYlQyRnh6UlVDX2xabzZ5eXlPVDV2LWlCdmFFd1JkdFBqTU9GczIxZlZYM1JoUDlka3huWFJ3dEdtTVliR2kzWjFKSXdZX1E3cVN2RXNQWWhMWUgxei1VZm1hS2dveTgtZDRJNVVHUTNOWXNXbVdTSGMyLTJXNndMQzUxRElPQUFTOGtGWDdvclpOQkpya21VRWZYWWI4dUU1XzVHQ1E2MmtjdmVqY1pUWWxnMGhFN0JMeUFYLTFLUzJVNmM1OHYxcS1CSGVzZ0FlV2JPVXRrMFlyUW01cnl1aXRkeVJHWEZsM213YzdFdmZoSngxOFdRSFFkd2txVXZpdERWY1FPUEhoZDRhSEl1VzJ2elBjcGpKVTN2RUw1Tl8yWV9yR2VGdnFwRXNpTllDSEtaNTQxakFKNXloa1BMZjVHUFdveVFKMWlHXzhrSXJTZS1oMFJYMWFfTXVUWGRlV3NTb25fakJsRlEyOWp4MFpiMW5TTkY0ei1pVjI0cWdxTU54WjdNX2hJci1qbWtoamNoV21hTHBuSEhfWEZBUF83Y0w0MjRvOU9QRUVfZC1HYjE0d2g1NGNySGFIQThxbW5Qcm9oTkNMR2xxY0ZyRmVXWkgtTF9ZWUxteDZMR2tfN2sxZGp5NFNIWmYwaUJBdFBub0xjUWlHaGhOZ1ZOUGozU2dZMHFVR3Rubi04bks1elRISW5GWGJuemlONW04TGFuQmFTeEJwcVlWcVhQNXdod2J3ZWdSRTdmYWdTZ2psYkRiU1pFVG5kalY3OGNsUVZhYkpEOFowS3VrUllPTi1HYndjQkZFY1Znb2hyMThva2FacW5RemRnOWwya1VIS21LeG5IWWVkdU5PWmd0T2xCRnBlcTB2THV4V3FGdVV2UG1pYVN0c09LcGl1Mm9Sb2lmYjhfU19lbV9LNGphQjhBcms2d2xCdWo0TFc0Z0lRVkdiRlZlZlVsWVJsb19nSWdvYmx3a2RiWXNqS0U2ejJKd1BiMC1kaEFwMVZ0R21BdGlzYnlhRTRGbjV1ZEFhcDZWT2xOS2hiLXo5Yk45WDlCYm5YZDhCbTAwXS0tPjwvZz48L3N2Zz4=;movable=1;resizable=1;rotatable=1;deletable=1;editable=1;locked=0;connectable=1;" vertex="1" parent="1">
            <mxGeometry x="-150" y="-530" width="1080" height="1700" as="geometry" />
          </mxCell>
        </UserObject>
      </root>
    </mxGraphModel>
  </diagram>
</mxfile>
